%TF.GenerationSoftware,KiCad,Pcbnew,10.0.3*%
%TF.CreationDate,2026-09-09T12:01:27+09:00*%
%TF.ProjectId,EMG,454d472e-6b69-4636-9164-5f7063625858,rev?*%
%TF.SameCoordinates,Original*%
%TF.FileFunction,Copper,L1,Top*%
%TF.FilePolarity,Positive*%
%FSLAX46Y46*%
G04 Gerber Fmt 4.6, Leading zero omitted, Abs format (unit mm)*
G04 Created by KiCad (PCBNEW 10.0.3) date 2026-09-09 12:01:27*
%MOMM*%
%LPD*%
G01*
G04 APERTURE LIST*
G04 Aperture macros list*
%AMRoundRect*
0 Rectangle with rounded corners*
0 $1 Rounding radius*
0 $2 $3 $4 $5 $6 $7 $8 $9 X,Y pos of 4 corners*
0 Add a 4 corners polygon primitive as box body*
4,1,4,$2,$3,$4,$5,$6,$7,$8,$9,$2,$3,0*
0 Add four circle primitives for the rounded corners*
1,1,$1+$1,$2,$3*
1,1,$1+$1,$4,$5*
1,1,$1+$1,$6,$7*
1,1,$1+$1,$8,$9*
0 Add four rect primitives between the rounded corners*
20,1,$1+$1,$2,$3,$4,$5,0*
20,1,$1+$1,$4,$5,$6,$7,0*
20,1,$1+$1,$6,$7,$8,$9,0*
20,1,$1+$1,$8,$9,$2,$3,0*%
G04 Aperture macros list end*
%TA.AperFunction,ComponentPad*%
%ADD10RoundRect,0.250000X-0.600000X-0.675000X0.600000X-0.675000X0.600000X0.675000X-0.600000X0.675000X0*%
%TD*%
%TA.AperFunction,ComponentPad*%
%ADD11O,1.700000X1.850000*%
%TD*%
%TA.AperFunction,SMDPad,CuDef*%
%ADD12RoundRect,0.152400X1.063600X0.609600X-1.063600X0.609600X-1.063600X-0.609600X1.063600X-0.609600X0*%
%TD*%
%TA.AperFunction,ComponentPad*%
%ADD13C,1.524000*%
%TD*%
%TA.AperFunction,SMDPad,CuDef*%
%ADD14RoundRect,0.152400X-1.063600X-0.609600X1.063600X-0.609600X1.063600X0.609600X-1.063600X0.609600X0*%
%TD*%
%TA.AperFunction,Conductor*%
%ADD15C,0.400000*%
%TD*%
G04 APERTURE END LIST*
D10*
%TO.P,J3,1,Pin_1_1*%
%TO.N,Net-(J3-Pin_1)*%
X147000000Y-105000000D03*
D11*
%TO.P,J3,2,Pin_2_2*%
%TO.N,Net-(J1-Pin_2)*%
X149500000Y-105000000D03*
%TO.P,J3,3,Pin_3_3*%
%TO.N,Net-(J1-Pin_3)*%
X152000000Y-105000000D03*
%TD*%
D10*
%TO.P,J4,1,Pin_1_1*%
%TO.N,Net-(J4-Pin_1)*%
X147000000Y-112500000D03*
D11*
%TO.P,J4,2,Pin_2_2*%
%TO.N,Net-(J1-Pin_2)*%
X149500000Y-112500000D03*
%TO.P,J4,3,Pin_3_3*%
%TO.N,Net-(J1-Pin_3)*%
X152000000Y-112500000D03*
%TD*%
D10*
%TO.P,J2,1,Pin_1_1*%
%TO.N,Net-(J2-Pin_1)*%
X133500000Y-112500000D03*
D11*
%TO.P,J2,2,Pin_2_2*%
%TO.N,Net-(J1-Pin_2)*%
X136000000Y-112500000D03*
%TO.P,J2,3,Pin_3_3*%
%TO.N,Net-(J1-Pin_3)*%
X138500000Y-112500000D03*
%TD*%
D10*
%TO.P,J1,1,Pin_1_1*%
%TO.N,Net-(J1-Pin_1)*%
X133500000Y-105000000D03*
D11*
%TO.P,J1,2,Pin_2_2*%
%TO.N,Net-(J1-Pin_2)*%
X136000000Y-105000000D03*
%TO.P,J1,3,Pin_3_3*%
%TO.N,Net-(J1-Pin_3)*%
X138500000Y-105000000D03*
%TD*%
D12*
%TO.P,U1,1,D0_1*%
%TO.N,Net-(J1-Pin_1)*%
X133925000Y-81760000D03*
D13*
X134760000Y-81760000D03*
D12*
%TO.P,U1,2,D1_2*%
%TO.N,Net-(J2-Pin_1)*%
X133925000Y-84300000D03*
D13*
X134760000Y-84300000D03*
D12*
%TO.P,U1,3,D2_3*%
%TO.N,Net-(J3-Pin_1)*%
X133925000Y-86840000D03*
D13*
X134760000Y-86840000D03*
D12*
%TO.P,U1,4,D3_4*%
%TO.N,Net-(J4-Pin_1)*%
X133925000Y-89380000D03*
D13*
X134760000Y-89380000D03*
D12*
%TO.P,U1,5,D4_5*%
%TO.N,unconnected-(U1-D4-Pad5)*%
X133925000Y-91920000D03*
D13*
%TO.N,unconnected-(U1-D4-Pad5)_1*%
X134760000Y-91920000D03*
D12*
%TO.P,U1,6,D5_6*%
%TO.N,unconnected-(U1-D5-Pad6)_1*%
X133925000Y-94460000D03*
D13*
%TO.N,unconnected-(U1-D5-Pad6)*%
X134760000Y-94460000D03*
D12*
%TO.P,U1,7,D6_7*%
%TO.N,unconnected-(U1-D6-Pad7)*%
X133925000Y-97000000D03*
D13*
%TO.N,unconnected-(U1-D6-Pad7)_1*%
X134760000Y-97000000D03*
%TO.P,U1,8,D7_8*%
%TO.N,unconnected-(U1-D7-Pad8)*%
X150000000Y-97000000D03*
D14*
%TO.N,unconnected-(U1-D7-Pad8)_1*%
X150835000Y-97000000D03*
D13*
%TO.P,U1,9,D8_9*%
%TO.N,unconnected-(U1-D8-Pad9)*%
X150000000Y-94460000D03*
D14*
%TO.N,unconnected-(U1-D8-Pad9)_1*%
X150835000Y-94460000D03*
D13*
%TO.P,U1,10,D9_10*%
%TO.N,unconnected-(U1-D9-Pad10)*%
X150000000Y-91920000D03*
D14*
%TO.N,unconnected-(U1-D9-Pad10)_1*%
X150835000Y-91920000D03*
D13*
%TO.P,U1,11,D10_11*%
%TO.N,unconnected-(U1-D10-Pad11)_1*%
X150000000Y-89380000D03*
D14*
%TO.N,unconnected-(U1-D10-Pad11)*%
X150835000Y-89380000D03*
D13*
%TO.P,U1,12,3V3_OUT_12*%
%TO.N,Net-(J1-Pin_2)*%
X150000000Y-86840000D03*
D14*
X150835000Y-86840000D03*
D13*
%TO.P,U1,13,GND_13*%
%TO.N,Net-(J1-Pin_3)*%
X150000000Y-84300000D03*
D14*
X150835000Y-84300000D03*
D13*
%TO.P,U1,14,VBUS_14*%
%TO.N,unconnected-(U1-VBUS-Pad14)*%
X150000000Y-81760000D03*
D14*
%TO.N,unconnected-(U1-VBUS-Pad14)_1*%
X150835000Y-81760000D03*
%TD*%
%TO.N,Net-(J3-Pin_1)*%
D15*
X147000000Y-105000000D02*
X147000000Y-95000000D01*
X147000000Y-95000000D02*
X138840000Y-86840000D01*
X138840000Y-86840000D02*
X134760000Y-86840000D01*
%TO.N,Net-(J4-Pin_1)*%
X134760000Y-89380000D02*
X138380000Y-89380000D01*
X144750000Y-95750000D02*
X144750000Y-110250000D01*
X147000000Y-112500000D02*
X147000000Y-112645000D01*
X144750000Y-110250000D02*
X147000000Y-112500000D01*
X138380000Y-89380000D02*
X144750000Y-95750000D01*
%TO.N,Net-(J2-Pin_1)*%
X134760000Y-84300000D02*
X134006366Y-84300000D01*
X134750000Y-102500000D02*
X134750000Y-111500000D01*
X132000000Y-86306366D02*
X132000000Y-99750000D01*
X132000000Y-99750000D02*
X134750000Y-102500000D01*
X134006366Y-84300000D02*
X132000000Y-86306366D01*
X134750000Y-111500000D02*
X133500000Y-112750000D01*
%TO.N,Net-(J1-Pin_1)*%
X134006366Y-81760000D02*
X130500000Y-85266366D01*
X130500000Y-85266366D02*
X130500000Y-102000000D01*
X130500000Y-102000000D02*
X133500000Y-105000000D01*
X134760000Y-81760000D02*
X134006366Y-81760000D01*
%TD*%
%TA.AperFunction,Conductor*%
%TO.N,Net-(J1-Pin_3)*%
G36*
X156192539Y-76520185D02*
G01*
X156238294Y-76572989D01*
X156249500Y-76624500D01*
X156249500Y-115375500D01*
X156229815Y-115442539D01*
X156177011Y-115488294D01*
X156125500Y-115499500D01*
X128624500Y-115499500D01*
X128557461Y-115479815D01*
X128511706Y-115427011D01*
X128500500Y-115375500D01*
X128500500Y-85197370D01*
X129799500Y-85197370D01*
X129799500Y-102068994D01*
X129826418Y-102204322D01*
X129826421Y-102204332D01*
X129879222Y-102331807D01*
X129955887Y-102446545D01*
X129955888Y-102446546D01*
X132113181Y-104603838D01*
X132146666Y-104665161D01*
X132149500Y-104691519D01*
X132149500Y-105725001D01*
X132149501Y-105725019D01*
X132160000Y-105827796D01*
X132160001Y-105827799D01*
X132205130Y-105963988D01*
X132215186Y-105994334D01*
X132307288Y-106143656D01*
X132431344Y-106267712D01*
X132580666Y-106359814D01*
X132747203Y-106414999D01*
X132849991Y-106425500D01*
X133925500Y-106425499D01*
X133992539Y-106445183D01*
X134038294Y-106497987D01*
X134049500Y-106549499D01*
X134049500Y-110950500D01*
X134029815Y-111017539D01*
X133977011Y-111063294D01*
X133925500Y-111074500D01*
X132849998Y-111074500D01*
X132849981Y-111074501D01*
X132747203Y-111085000D01*
X132747200Y-111085001D01*
X132580668Y-111140185D01*
X132580663Y-111140187D01*
X132431342Y-111232289D01*
X132307289Y-111356342D01*
X132215187Y-111505663D01*
X132215185Y-111505668D01*
X132210325Y-111520334D01*
X132160001Y-111672203D01*
X132160001Y-111672204D01*
X132160000Y-111672204D01*
X132149500Y-111774983D01*
X132149500Y-113225001D01*
X132149501Y-113225018D01*
X132160000Y-113327796D01*
X132160001Y-113327799D01*
X132205894Y-113466294D01*
X132215186Y-113494334D01*
X132307288Y-113643656D01*
X132431344Y-113767712D01*
X132580666Y-113859814D01*
X132747203Y-113914999D01*
X132849991Y-113925500D01*
X134150008Y-113925499D01*
X134252797Y-113914999D01*
X134419334Y-113859814D01*
X134568656Y-113767712D01*
X134692712Y-113643656D01*
X134784814Y-113494334D01*
X134784814Y-113494331D01*
X134788178Y-113488879D01*
X134840126Y-113442154D01*
X134909088Y-113430931D01*
X134973170Y-113458774D01*
X134981398Y-113466294D01*
X135120213Y-113605109D01*
X135292179Y-113730048D01*
X135292181Y-113730049D01*
X135292184Y-113730051D01*
X135481588Y-113826557D01*
X135683757Y-113892246D01*
X135893713Y-113925500D01*
X135893714Y-113925500D01*
X136106286Y-113925500D01*
X136106287Y-113925500D01*
X136316243Y-113892246D01*
X136518412Y-113826557D01*
X136707816Y-113730051D01*
X136729789Y-113714086D01*
X136879786Y-113605109D01*
X136879788Y-113605106D01*
X136879792Y-113605104D01*
X137030104Y-113454792D01*
X137149991Y-113289779D01*
X137205320Y-113247115D01*
X137274933Y-113241136D01*
X137336729Y-113273741D01*
X137350627Y-113289781D01*
X137470272Y-113454459D01*
X137470276Y-113454464D01*
X137620535Y-113604723D01*
X137620540Y-113604727D01*
X137792442Y-113729620D01*
X137981782Y-113826095D01*
X138183871Y-113891757D01*
X138250000Y-113902231D01*
X138250000Y-112846409D01*
X138335956Y-112896037D01*
X138444048Y-112925000D01*
X138555952Y-112925000D01*
X138664044Y-112896037D01*
X138750000Y-112846409D01*
X138750000Y-113902230D01*
X138816126Y-113891757D01*
X138816129Y-113891757D01*
X139018217Y-113826095D01*
X139207557Y-113729620D01*
X139379459Y-113604727D01*
X139379464Y-113604723D01*
X139529723Y-113454464D01*
X139529727Y-113454459D01*
X139654620Y-113282557D01*
X139751095Y-113093217D01*
X139816757Y-112891127D01*
X139839110Y-112750000D01*
X138846410Y-112750000D01*
X138896037Y-112664044D01*
X138925000Y-112555952D01*
X138925000Y-112444048D01*
X138896037Y-112335956D01*
X138846410Y-112250000D01*
X139839110Y-112250000D01*
X139816757Y-112108872D01*
X139751095Y-111906782D01*
X139654620Y-111717442D01*
X139529727Y-111545540D01*
X139529723Y-111545535D01*
X139379464Y-111395276D01*
X139379459Y-111395272D01*
X139207557Y-111270379D01*
X139018215Y-111173903D01*
X138816124Y-111108241D01*
X138750000Y-111097768D01*
X138750000Y-112153590D01*
X138664044Y-112103963D01*
X138555952Y-112075000D01*
X138444048Y-112075000D01*
X138335956Y-112103963D01*
X138250000Y-112153590D01*
X138250000Y-111097768D01*
X138249999Y-111097768D01*
X138183875Y-111108241D01*
X137981784Y-111173903D01*
X137792442Y-111270379D01*
X137620540Y-111395272D01*
X137620535Y-111395276D01*
X137470276Y-111545535D01*
X137470272Y-111545540D01*
X137350627Y-111710218D01*
X137295297Y-111752884D01*
X137225684Y-111758863D01*
X137163889Y-111726257D01*
X137149991Y-111710218D01*
X137030109Y-111545214D01*
X137030105Y-111545209D01*
X136879786Y-111394890D01*
X136707820Y-111269951D01*
X136518414Y-111173444D01*
X136518413Y-111173443D01*
X136518412Y-111173443D01*
X136316243Y-111107754D01*
X136316241Y-111107753D01*
X136316240Y-111107753D01*
X136154957Y-111082208D01*
X136106287Y-111074500D01*
X135893713Y-111074500D01*
X135854202Y-111080757D01*
X135683759Y-111107753D01*
X135683755Y-111107754D01*
X135612817Y-111130803D01*
X135542976Y-111132798D01*
X135483143Y-111096717D01*
X135452316Y-111034016D01*
X135450500Y-111012872D01*
X135450500Y-106487127D01*
X135470185Y-106420088D01*
X135522989Y-106374333D01*
X135592147Y-106364389D01*
X135612813Y-106369194D01*
X135683757Y-106392246D01*
X135893713Y-106425500D01*
X135893714Y-106425500D01*
X136106286Y-106425500D01*
X136106287Y-106425500D01*
X136316243Y-106392246D01*
X136518412Y-106326557D01*
X136707816Y-106230051D01*
X136729789Y-106214086D01*
X136879786Y-106105109D01*
X136879788Y-106105106D01*
X136879792Y-106105104D01*
X137030104Y-105954792D01*
X137149991Y-105789779D01*
X137205320Y-105747115D01*
X137274933Y-105741136D01*
X137336729Y-105773741D01*
X137350627Y-105789781D01*
X137470272Y-105954459D01*
X137470276Y-105954464D01*
X137620535Y-106104723D01*
X137620540Y-106104727D01*
X137792442Y-106229620D01*
X137981782Y-106326095D01*
X138183871Y-106391757D01*
X138250000Y-106402231D01*
X138250000Y-105346409D01*
X138335956Y-105396037D01*
X138444048Y-105425000D01*
X138555952Y-105425000D01*
X138664044Y-105396037D01*
X138750000Y-105346409D01*
X138750000Y-106402230D01*
X138816126Y-106391757D01*
X138816129Y-106391757D01*
X139018217Y-106326095D01*
X139207557Y-106229620D01*
X139379459Y-106104727D01*
X139379464Y-106104723D01*
X139529723Y-105954464D01*
X139529727Y-105954459D01*
X139654620Y-105782557D01*
X139751095Y-105593217D01*
X139816757Y-105391127D01*
X139839110Y-105250000D01*
X138846410Y-105250000D01*
X138896037Y-105164044D01*
X138925000Y-105055952D01*
X138925000Y-104944048D01*
X138896037Y-104835956D01*
X138846410Y-104750000D01*
X139839110Y-104750000D01*
X139816757Y-104608872D01*
X139751095Y-104406782D01*
X139654620Y-104217442D01*
X139529727Y-104045540D01*
X139529723Y-104045535D01*
X139379464Y-103895276D01*
X139379459Y-103895272D01*
X139207557Y-103770379D01*
X139018215Y-103673903D01*
X138816124Y-103608241D01*
X138750000Y-103597768D01*
X138750000Y-104653590D01*
X138664044Y-104603963D01*
X138555952Y-104575000D01*
X138444048Y-104575000D01*
X138335956Y-104603963D01*
X138250000Y-104653590D01*
X138250000Y-103597768D01*
X138249999Y-103597768D01*
X138183875Y-103608241D01*
X137981784Y-103673903D01*
X137792442Y-103770379D01*
X137620540Y-103895272D01*
X137620535Y-103895276D01*
X137470276Y-104045535D01*
X137470272Y-104045540D01*
X137350627Y-104210218D01*
X137295297Y-104252884D01*
X137225684Y-104258863D01*
X137163889Y-104226257D01*
X137149991Y-104210218D01*
X137030109Y-104045214D01*
X137030105Y-104045209D01*
X136879786Y-103894890D01*
X136707820Y-103769951D01*
X136518414Y-103673444D01*
X136518413Y-103673443D01*
X136518412Y-103673443D01*
X136316243Y-103607754D01*
X136316241Y-103607753D01*
X136316240Y-103607753D01*
X136138853Y-103579658D01*
X136106287Y-103574500D01*
X135893713Y-103574500D01*
X135861147Y-103579658D01*
X135683759Y-103607753D01*
X135683755Y-103607754D01*
X135612817Y-103630803D01*
X135542976Y-103632798D01*
X135483143Y-103596717D01*
X135452316Y-103534016D01*
X135450500Y-103512872D01*
X135450500Y-102431004D01*
X135423581Y-102295677D01*
X135423580Y-102295676D01*
X135423580Y-102295672D01*
X135385746Y-102204332D01*
X135370778Y-102168195D01*
X135370771Y-102168182D01*
X135304495Y-102068994D01*
X135304494Y-102068992D01*
X135294116Y-102053459D01*
X132736819Y-99496162D01*
X132703334Y-99434839D01*
X132700500Y-99408481D01*
X132700500Y-98386500D01*
X132720185Y-98319461D01*
X132772989Y-98273706D01*
X132824500Y-98262500D01*
X135054526Y-98262500D01*
X135054534Y-98262500D01*
X135091548Y-98259587D01*
X135091550Y-98259586D01*
X135091552Y-98259586D01*
X135149501Y-98242750D01*
X135249959Y-98213564D01*
X135391947Y-98129592D01*
X135488148Y-98033389D01*
X135502939Y-98020758D01*
X135582464Y-97962981D01*
X135722981Y-97822464D01*
X135839787Y-97661694D01*
X135930005Y-97484632D01*
X135991413Y-97295636D01*
X136022500Y-97099361D01*
X136022500Y-96900639D01*
X135991413Y-96704364D01*
X135930005Y-96515368D01*
X135930005Y-96515367D01*
X135839786Y-96338305D01*
X135722981Y-96177536D01*
X135582464Y-96037019D01*
X135502937Y-95979239D01*
X135496175Y-95973960D01*
X135492000Y-95970461D01*
X135391947Y-95870408D01*
X135326259Y-95831560D01*
X135318477Y-95825038D01*
X135304510Y-95804073D01*
X135287321Y-95785663D01*
X135285471Y-95775492D01*
X135279740Y-95766890D01*
X135279324Y-95741702D01*
X135274817Y-95716921D01*
X135278758Y-95707366D01*
X135278588Y-95697030D01*
X135291856Y-95675616D01*
X135301462Y-95652332D01*
X135311874Y-95643309D01*
X135315389Y-95637638D01*
X135322127Y-95634425D01*
X135335004Y-95623268D01*
X135391947Y-95589592D01*
X135488148Y-95493389D01*
X135502939Y-95480758D01*
X135582464Y-95422981D01*
X135722981Y-95282464D01*
X135839787Y-95121694D01*
X135930005Y-94944632D01*
X135991413Y-94755636D01*
X136022500Y-94559361D01*
X136022500Y-94360639D01*
X135991413Y-94164364D01*
X135930005Y-93975368D01*
X135930005Y-93975367D01*
X135839786Y-93798305D01*
X135722981Y-93637536D01*
X135582464Y-93497019D01*
X135502937Y-93439239D01*
X135496175Y-93433960D01*
X135492000Y-93430461D01*
X135391947Y-93330408D01*
X135326259Y-93291560D01*
X135318477Y-93285038D01*
X135304510Y-93264073D01*
X135287321Y-93245663D01*
X135285471Y-93235492D01*
X135279740Y-93226890D01*
X135279324Y-93201702D01*
X135274817Y-93176921D01*
X135278758Y-93167366D01*
X135278588Y-93157030D01*
X135291856Y-93135616D01*
X135301462Y-93112332D01*
X135311874Y-93103309D01*
X135315389Y-93097638D01*
X135322127Y-93094425D01*
X135335004Y-93083268D01*
X135391947Y-93049592D01*
X135488148Y-92953389D01*
X135502939Y-92940758D01*
X135582464Y-92882981D01*
X135722981Y-92742464D01*
X135839787Y-92581694D01*
X135930005Y-92404632D01*
X135991413Y-92215636D01*
X136022500Y-92019361D01*
X136022500Y-91820639D01*
X135991413Y-91624364D01*
X135930005Y-91435368D01*
X135930005Y-91435367D01*
X135839786Y-91258305D01*
X135722981Y-91097536D01*
X135582464Y-90957019D01*
X135502937Y-90899239D01*
X135496175Y-90893960D01*
X135492000Y-90890461D01*
X135391947Y-90790408D01*
X135326259Y-90751560D01*
X135318477Y-90745038D01*
X135304510Y-90724073D01*
X135287321Y-90705663D01*
X135285471Y-90695492D01*
X135279740Y-90686890D01*
X135279324Y-90661702D01*
X135274817Y-90636921D01*
X135278758Y-90627366D01*
X135278588Y-90617030D01*
X135291856Y-90595616D01*
X135301462Y-90572332D01*
X135311874Y-90563309D01*
X135315389Y-90557638D01*
X135322127Y-90554425D01*
X135335004Y-90543268D01*
X135391947Y-90509592D01*
X135488148Y-90413389D01*
X135502939Y-90400758D01*
X135582464Y-90342981D01*
X135722981Y-90202464D01*
X135774457Y-90131613D01*
X135829786Y-90088949D01*
X135874774Y-90080500D01*
X138038481Y-90080500D01*
X138105520Y-90100185D01*
X138126162Y-90116819D01*
X144013181Y-96003837D01*
X144046666Y-96065160D01*
X144049500Y-96091518D01*
X144049500Y-110181006D01*
X144049500Y-110318994D01*
X144049500Y-110318996D01*
X144049499Y-110318996D01*
X144076418Y-110454322D01*
X144076421Y-110454332D01*
X144129222Y-110581807D01*
X144205887Y-110696545D01*
X144205888Y-110696546D01*
X145613181Y-112103838D01*
X145646666Y-112165161D01*
X145649500Y-112191519D01*
X145649500Y-113225001D01*
X145649501Y-113225019D01*
X145660000Y-113327796D01*
X145660001Y-113327799D01*
X145705894Y-113466294D01*
X145715186Y-113494334D01*
X145807288Y-113643656D01*
X145931344Y-113767712D01*
X146080666Y-113859814D01*
X146247203Y-113914999D01*
X146349991Y-113925500D01*
X147650008Y-113925499D01*
X147752797Y-113914999D01*
X147919334Y-113859814D01*
X148068656Y-113767712D01*
X148192712Y-113643656D01*
X148284814Y-113494334D01*
X148284814Y-113494331D01*
X148288178Y-113488879D01*
X148340126Y-113442154D01*
X148409088Y-113430931D01*
X148473170Y-113458774D01*
X148481398Y-113466294D01*
X148620213Y-113605109D01*
X148792179Y-113730048D01*
X148792181Y-113730049D01*
X148792184Y-113730051D01*
X148981588Y-113826557D01*
X149183757Y-113892246D01*
X149393713Y-113925500D01*
X149393714Y-113925500D01*
X149606286Y-113925500D01*
X149606287Y-113925500D01*
X149816243Y-113892246D01*
X150018412Y-113826557D01*
X150207816Y-113730051D01*
X150229789Y-113714086D01*
X150379786Y-113605109D01*
X150379788Y-113605106D01*
X150379792Y-113605104D01*
X150530104Y-113454792D01*
X150649991Y-113289779D01*
X150705320Y-113247115D01*
X150774933Y-113241136D01*
X150836729Y-113273741D01*
X150850627Y-113289781D01*
X150970272Y-113454459D01*
X150970276Y-113454464D01*
X151120535Y-113604723D01*
X151120540Y-113604727D01*
X151292442Y-113729620D01*
X151481782Y-113826095D01*
X151683871Y-113891757D01*
X151750000Y-113902231D01*
X151750000Y-112846409D01*
X151835956Y-112896037D01*
X151944048Y-112925000D01*
X152055952Y-112925000D01*
X152164044Y-112896037D01*
X152250000Y-112846409D01*
X152250000Y-113902230D01*
X152316126Y-113891757D01*
X152316129Y-113891757D01*
X152518217Y-113826095D01*
X152707557Y-113729620D01*
X152879459Y-113604727D01*
X152879464Y-113604723D01*
X153029723Y-113454464D01*
X153029727Y-113454459D01*
X153154620Y-113282557D01*
X153251095Y-113093217D01*
X153316757Y-112891127D01*
X153339110Y-112750000D01*
X152346410Y-112750000D01*
X152396037Y-112664044D01*
X152425000Y-112555952D01*
X152425000Y-112444048D01*
X152396037Y-112335956D01*
X152346410Y-112250000D01*
X153339110Y-112250000D01*
X153316757Y-112108872D01*
X153251095Y-111906782D01*
X153154620Y-111717442D01*
X153029727Y-111545540D01*
X153029723Y-111545535D01*
X152879464Y-111395276D01*
X152879459Y-111395272D01*
X152707557Y-111270379D01*
X152518215Y-111173903D01*
X152316124Y-111108241D01*
X152250000Y-111097768D01*
X152250000Y-112153590D01*
X152164044Y-112103963D01*
X152055952Y-112075000D01*
X151944048Y-112075000D01*
X151835956Y-112103963D01*
X151750000Y-112153590D01*
X151750000Y-111097768D01*
X151749999Y-111097768D01*
X151683875Y-111108241D01*
X151481784Y-111173903D01*
X151292442Y-111270379D01*
X151120540Y-111395272D01*
X151120535Y-111395276D01*
X150970276Y-111545535D01*
X150970272Y-111545540D01*
X150850627Y-111710218D01*
X150795297Y-111752884D01*
X150725684Y-111758863D01*
X150663889Y-111726257D01*
X150649991Y-111710218D01*
X150530109Y-111545214D01*
X150530105Y-111545209D01*
X150379786Y-111394890D01*
X150207820Y-111269951D01*
X150018414Y-111173444D01*
X150018413Y-111173443D01*
X150018412Y-111173443D01*
X149816243Y-111107754D01*
X149816241Y-111107753D01*
X149816240Y-111107753D01*
X149654957Y-111082208D01*
X149606287Y-111074500D01*
X149393713Y-111074500D01*
X149345042Y-111082208D01*
X149183760Y-111107753D01*
X148981585Y-111173444D01*
X148792179Y-111269951D01*
X148620215Y-111394889D01*
X148481398Y-111533706D01*
X148420075Y-111567190D01*
X148350383Y-111562206D01*
X148294450Y-111520334D01*
X148288178Y-111511120D01*
X148192712Y-111356344D01*
X148068657Y-111232289D01*
X148068656Y-111232288D01*
X147919334Y-111140186D01*
X147752797Y-111085001D01*
X147752795Y-111085000D01*
X147650016Y-111074500D01*
X147650009Y-111074500D01*
X146616519Y-111074500D01*
X146549480Y-111054815D01*
X146528838Y-111038181D01*
X145486819Y-109996162D01*
X145453334Y-109934839D01*
X145450500Y-109908481D01*
X145450500Y-105963988D01*
X145470185Y-105896949D01*
X145522989Y-105851194D01*
X145592147Y-105841250D01*
X145655703Y-105870275D01*
X145692205Y-105924982D01*
X145715186Y-105994334D01*
X145807288Y-106143656D01*
X145931344Y-106267712D01*
X146080666Y-106359814D01*
X146247203Y-106414999D01*
X146349991Y-106425500D01*
X147650008Y-106425499D01*
X147752797Y-106414999D01*
X147919334Y-106359814D01*
X148068656Y-106267712D01*
X148192712Y-106143656D01*
X148284814Y-105994334D01*
X148284814Y-105994331D01*
X148288178Y-105988879D01*
X148340126Y-105942154D01*
X148409088Y-105930931D01*
X148473170Y-105958774D01*
X148481398Y-105966294D01*
X148620213Y-106105109D01*
X148792179Y-106230048D01*
X148792181Y-106230049D01*
X148792184Y-106230051D01*
X148981588Y-106326557D01*
X149183757Y-106392246D01*
X149393713Y-106425500D01*
X149393714Y-106425500D01*
X149606286Y-106425500D01*
X149606287Y-106425500D01*
X149816243Y-106392246D01*
X150018412Y-106326557D01*
X150207816Y-106230051D01*
X150229789Y-106214086D01*
X150379786Y-106105109D01*
X150379788Y-106105106D01*
X150379792Y-106105104D01*
X150530104Y-105954792D01*
X150649991Y-105789779D01*
X150705320Y-105747115D01*
X150774933Y-105741136D01*
X150836729Y-105773741D01*
X150850627Y-105789781D01*
X150970272Y-105954459D01*
X150970276Y-105954464D01*
X151120535Y-106104723D01*
X151120540Y-106104727D01*
X151292442Y-106229620D01*
X151481782Y-106326095D01*
X151683871Y-106391757D01*
X151750000Y-106402231D01*
X151750000Y-105346409D01*
X151835956Y-105396037D01*
X151944048Y-105425000D01*
X152055952Y-105425000D01*
X152164044Y-105396037D01*
X152250000Y-105346409D01*
X152250000Y-106402230D01*
X152316126Y-106391757D01*
X152316129Y-106391757D01*
X152518217Y-106326095D01*
X152707557Y-106229620D01*
X152879459Y-106104727D01*
X152879464Y-106104723D01*
X153029723Y-105954464D01*
X153029727Y-105954459D01*
X153154620Y-105782557D01*
X153251095Y-105593217D01*
X153316757Y-105391127D01*
X153339110Y-105250000D01*
X152346410Y-105250000D01*
X152396037Y-105164044D01*
X152425000Y-105055952D01*
X152425000Y-104944048D01*
X152396037Y-104835956D01*
X152346410Y-104750000D01*
X153339110Y-104750000D01*
X153316757Y-104608872D01*
X153251095Y-104406782D01*
X153154620Y-104217442D01*
X153029727Y-104045540D01*
X153029723Y-104045535D01*
X152879464Y-103895276D01*
X152879459Y-103895272D01*
X152707557Y-103770379D01*
X152518215Y-103673903D01*
X152316124Y-103608241D01*
X152250000Y-103597768D01*
X152250000Y-104653590D01*
X152164044Y-104603963D01*
X152055952Y-104575000D01*
X151944048Y-104575000D01*
X151835956Y-104603963D01*
X151750000Y-104653590D01*
X151750000Y-103597768D01*
X151749999Y-103597768D01*
X151683875Y-103608241D01*
X151481784Y-103673903D01*
X151292442Y-103770379D01*
X151120540Y-103895272D01*
X151120535Y-103895276D01*
X150970276Y-104045535D01*
X150970272Y-104045540D01*
X150850627Y-104210218D01*
X150795297Y-104252884D01*
X150725684Y-104258863D01*
X150663889Y-104226257D01*
X150649991Y-104210218D01*
X150530109Y-104045214D01*
X150530105Y-104045209D01*
X150379786Y-103894890D01*
X150207820Y-103769951D01*
X150018414Y-103673444D01*
X150018413Y-103673443D01*
X150018412Y-103673443D01*
X149816243Y-103607754D01*
X149816241Y-103607753D01*
X149816240Y-103607753D01*
X149638853Y-103579658D01*
X149606287Y-103574500D01*
X149393713Y-103574500D01*
X149361147Y-103579658D01*
X149183760Y-103607753D01*
X148981585Y-103673444D01*
X148792179Y-103769951D01*
X148620215Y-103894889D01*
X148481398Y-104033706D01*
X148420075Y-104067190D01*
X148350383Y-104062206D01*
X148294450Y-104020334D01*
X148288178Y-104011120D01*
X148192712Y-103856344D01*
X148068657Y-103732289D01*
X148068656Y-103732288D01*
X147919334Y-103640186D01*
X147791325Y-103597768D01*
X147785495Y-103595836D01*
X147728051Y-103556063D01*
X147701228Y-103491547D01*
X147700500Y-103478130D01*
X147700500Y-94931004D01*
X147673581Y-94795677D01*
X147673580Y-94795676D01*
X147673580Y-94795672D01*
X147656997Y-94755636D01*
X147620777Y-94668192D01*
X147544112Y-94553454D01*
X139286545Y-86295887D01*
X139171807Y-86219222D01*
X139044332Y-86166421D01*
X139044322Y-86166418D01*
X138908996Y-86139500D01*
X138908994Y-86139500D01*
X138908993Y-86139500D01*
X135874774Y-86139500D01*
X135807735Y-86119815D01*
X135774457Y-86088387D01*
X135722981Y-86017536D01*
X135582464Y-85877019D01*
X135567388Y-85866066D01*
X135502938Y-85819240D01*
X135496175Y-85813960D01*
X135492000Y-85810461D01*
X135391947Y-85710408D01*
X135326259Y-85671560D01*
X135318477Y-85665038D01*
X135304510Y-85644073D01*
X135287321Y-85625663D01*
X135285471Y-85615492D01*
X135279740Y-85606890D01*
X135279324Y-85581702D01*
X135274817Y-85556921D01*
X135278758Y-85547366D01*
X135278588Y-85537030D01*
X135291856Y-85515616D01*
X135301462Y-85492332D01*
X135311874Y-85483309D01*
X135315389Y-85477638D01*
X135322127Y-85474425D01*
X135335004Y-85463268D01*
X135335498Y-85462976D01*
X135391947Y-85429592D01*
X135488148Y-85333389D01*
X135502939Y-85320758D01*
X135582464Y-85262981D01*
X135722981Y-85122464D01*
X135839787Y-84961694D01*
X135930005Y-84784632D01*
X135991413Y-84595636D01*
X136022500Y-84399361D01*
X136022500Y-84200639D01*
X135991413Y-84004364D01*
X135930005Y-83815368D01*
X135930005Y-83815367D01*
X135839786Y-83638305D01*
X135812888Y-83601283D01*
X135722981Y-83477536D01*
X135582464Y-83337019D01*
X135502938Y-83279240D01*
X135496175Y-83273960D01*
X135492000Y-83270461D01*
X135391947Y-83170408D01*
X135326259Y-83131560D01*
X135318477Y-83125038D01*
X135304510Y-83104073D01*
X135287321Y-83085663D01*
X135285471Y-83075492D01*
X135279740Y-83066890D01*
X135279324Y-83041702D01*
X135274817Y-83016921D01*
X135278758Y-83007366D01*
X135278588Y-82997030D01*
X135291856Y-82975616D01*
X135301462Y-82952332D01*
X135311874Y-82943309D01*
X135315389Y-82937638D01*
X135322127Y-82934425D01*
X135335004Y-82923268D01*
X135391947Y-82889592D01*
X135488148Y-82793389D01*
X135502939Y-82780758D01*
X135582464Y-82722981D01*
X135722981Y-82582464D01*
X135839787Y-82421694D01*
X135930005Y-82244632D01*
X135991413Y-82055636D01*
X136022500Y-81859361D01*
X136022500Y-81660639D01*
X148737500Y-81660639D01*
X148737500Y-81859360D01*
X148768587Y-82055637D01*
X148829993Y-82244629D01*
X148829994Y-82244632D01*
X148920213Y-82421694D01*
X149037019Y-82582464D01*
X149037021Y-82582466D01*
X149177539Y-82722984D01*
X149257060Y-82780758D01*
X149263786Y-82786007D01*
X149267979Y-82789518D01*
X149368053Y-82889592D01*
X149434208Y-82928716D01*
X149441975Y-82935220D01*
X149455962Y-82956197D01*
X149473170Y-82974627D01*
X149475015Y-82984773D01*
X149480736Y-82993353D01*
X149481161Y-83018564D01*
X149485673Y-83043369D01*
X149481740Y-83052900D01*
X149481915Y-83063212D01*
X149468643Y-83084649D01*
X149459028Y-83107958D01*
X149448643Y-83116956D01*
X149445137Y-83122620D01*
X149438391Y-83125838D01*
X149425487Y-83137021D01*
X149368370Y-83170800D01*
X149368357Y-83170810D01*
X149296360Y-83242806D01*
X149296360Y-83242807D01*
X149915905Y-83862352D01*
X149828429Y-83885792D01*
X149727070Y-83944311D01*
X149644311Y-84027070D01*
X149585792Y-84128429D01*
X149562352Y-84215905D01*
X148947730Y-83601282D01*
X148947729Y-83601283D01*
X148920643Y-83638564D01*
X148830457Y-83815562D01*
X148769075Y-84004476D01*
X148769075Y-84004479D01*
X148738000Y-84200678D01*
X148738000Y-84399321D01*
X148769075Y-84595520D01*
X148769075Y-84595523D01*
X148830457Y-84784437D01*
X148920641Y-84961432D01*
X148947730Y-84998715D01*
X148947731Y-84998716D01*
X149562352Y-84384094D01*
X149585792Y-84471571D01*
X149644311Y-84572930D01*
X149727070Y-84655689D01*
X149828429Y-84714208D01*
X149915904Y-84737647D01*
X149296360Y-85357191D01*
X149368360Y-85429192D01*
X149368364Y-85429195D01*
X149425486Y-85462977D01*
X149473169Y-85514046D01*
X149485673Y-85582788D01*
X149459028Y-85647377D01*
X149441975Y-85664779D01*
X149434204Y-85671285D01*
X149368053Y-85710408D01*
X149267990Y-85810469D01*
X149263784Y-85813992D01*
X149262598Y-85814509D01*
X149257061Y-85819239D01*
X149177536Y-85877018D01*
X149037021Y-86017533D01*
X148920213Y-86178305D01*
X148829994Y-86355367D01*
X148829993Y-86355370D01*
X148768587Y-86544362D01*
X148737500Y-86740639D01*
X148737500Y-86939360D01*
X148768587Y-87135637D01*
X148829993Y-87324629D01*
X148829994Y-87324632D01*
X148920213Y-87501694D01*
X149037019Y-87662464D01*
X149037021Y-87662466D01*
X149177539Y-87802984D01*
X149257060Y-87860758D01*
X149263824Y-87866039D01*
X149267998Y-87869537D01*
X149368053Y-87969592D01*
X149433737Y-88008437D01*
X149441522Y-88014962D01*
X149455488Y-88035926D01*
X149472679Y-88054338D01*
X149474528Y-88064506D01*
X149480260Y-88073110D01*
X149480674Y-88098297D01*
X149485182Y-88123079D01*
X149481239Y-88132634D01*
X149481410Y-88142970D01*
X149468143Y-88164381D01*
X149458536Y-88187669D01*
X149448122Y-88196692D01*
X149444609Y-88202363D01*
X149437871Y-88205575D01*
X149424996Y-88216732D01*
X149368053Y-88250408D01*
X149368046Y-88250413D01*
X149271854Y-88346604D01*
X149257061Y-88359239D01*
X149177536Y-88417018D01*
X149037021Y-88557533D01*
X148920213Y-88718305D01*
X148829994Y-88895367D01*
X148829993Y-88895370D01*
X148768587Y-89084362D01*
X148737500Y-89280639D01*
X148737500Y-89479360D01*
X148768587Y-89675637D01*
X148829993Y-89864629D01*
X148829994Y-89864632D01*
X148920213Y-90041694D01*
X149037019Y-90202464D01*
X149037021Y-90202466D01*
X149177539Y-90342984D01*
X149257060Y-90400758D01*
X149263824Y-90406039D01*
X149267998Y-90409537D01*
X149368053Y-90509592D01*
X149433737Y-90548437D01*
X149441522Y-90554962D01*
X149455488Y-90575926D01*
X149472679Y-90594338D01*
X149474528Y-90604506D01*
X149480260Y-90613110D01*
X149480674Y-90638297D01*
X149485182Y-90663079D01*
X149481239Y-90672634D01*
X149481410Y-90682970D01*
X149468143Y-90704381D01*
X149458536Y-90727669D01*
X149448122Y-90736692D01*
X149444609Y-90742363D01*
X149437871Y-90745575D01*
X149424996Y-90756732D01*
X149368053Y-90790408D01*
X149368046Y-90790413D01*
X149271854Y-90886604D01*
X149257061Y-90899239D01*
X149177536Y-90957018D01*
X149037021Y-91097533D01*
X148920213Y-91258305D01*
X148829994Y-91435367D01*
X148829993Y-91435370D01*
X148768587Y-91624362D01*
X148737500Y-91820639D01*
X148737500Y-92019360D01*
X148768587Y-92215637D01*
X148829993Y-92404629D01*
X148829994Y-92404632D01*
X148920213Y-92581694D01*
X149037019Y-92742464D01*
X149037021Y-92742466D01*
X149177539Y-92882984D01*
X149257060Y-92940758D01*
X149263824Y-92946039D01*
X149267998Y-92949537D01*
X149368053Y-93049592D01*
X149433737Y-93088437D01*
X149441522Y-93094962D01*
X149455488Y-93115926D01*
X149472679Y-93134338D01*
X149474528Y-93144506D01*
X149480260Y-93153110D01*
X149480674Y-93178297D01*
X149485182Y-93203079D01*
X149481239Y-93212634D01*
X149481410Y-93222970D01*
X149468143Y-93244381D01*
X149458536Y-93267669D01*
X149448122Y-93276692D01*
X149444609Y-93282363D01*
X149437871Y-93285575D01*
X149424996Y-93296732D01*
X149368053Y-93330408D01*
X149368046Y-93330413D01*
X149271854Y-93426604D01*
X149257061Y-93439239D01*
X149177536Y-93497018D01*
X149037021Y-93637533D01*
X148920213Y-93798305D01*
X148829994Y-93975367D01*
X148829993Y-93975370D01*
X148768587Y-94164362D01*
X148737500Y-94360639D01*
X148737500Y-94559360D01*
X148768587Y-94755637D01*
X148829993Y-94944629D01*
X148829994Y-94944632D01*
X148920213Y-95121694D01*
X149037019Y-95282464D01*
X149037021Y-95282466D01*
X149177539Y-95422984D01*
X149257060Y-95480758D01*
X149263824Y-95486039D01*
X149267998Y-95489537D01*
X149368053Y-95589592D01*
X149433737Y-95628437D01*
X149441522Y-95634962D01*
X149455488Y-95655926D01*
X149472679Y-95674338D01*
X149474528Y-95684506D01*
X149480260Y-95693110D01*
X149480674Y-95718297D01*
X149485182Y-95743079D01*
X149481239Y-95752634D01*
X149481410Y-95762970D01*
X149468143Y-95784381D01*
X149458536Y-95807669D01*
X149448122Y-95816692D01*
X149444609Y-95822363D01*
X149437871Y-95825575D01*
X149424996Y-95836732D01*
X149368053Y-95870408D01*
X149368046Y-95870413D01*
X149271854Y-95966604D01*
X149257061Y-95979239D01*
X149177536Y-96037018D01*
X149037021Y-96177533D01*
X148920213Y-96338305D01*
X148829994Y-96515367D01*
X148829993Y-96515370D01*
X148768587Y-96704362D01*
X148737500Y-96900639D01*
X148737500Y-97099360D01*
X148768587Y-97295637D01*
X148829993Y-97484629D01*
X148829994Y-97484632D01*
X148920213Y-97661694D01*
X149037019Y-97822464D01*
X149037021Y-97822466D01*
X149177539Y-97962984D01*
X149257060Y-98020758D01*
X149271851Y-98033390D01*
X149368053Y-98129592D01*
X149510041Y-98213564D01*
X149551816Y-98225701D01*
X149668447Y-98259586D01*
X149668450Y-98259586D01*
X149668452Y-98259587D01*
X149705466Y-98262500D01*
X149705474Y-98262500D01*
X151964526Y-98262500D01*
X151964534Y-98262500D01*
X152001548Y-98259587D01*
X152001550Y-98259586D01*
X152001552Y-98259586D01*
X152059501Y-98242750D01*
X152159959Y-98213564D01*
X152301947Y-98129592D01*
X152418592Y-98012947D01*
X152502564Y-97870959D01*
X152548587Y-97712548D01*
X152551500Y-97675534D01*
X152551500Y-96324466D01*
X152548587Y-96287452D01*
X152502564Y-96129041D01*
X152418592Y-95987053D01*
X152418590Y-95987051D01*
X152418587Y-95987047D01*
X152301952Y-95870412D01*
X152301944Y-95870406D01*
X152245004Y-95836732D01*
X152197321Y-95785663D01*
X152184817Y-95716921D01*
X152211462Y-95652332D01*
X152245004Y-95623268D01*
X152301947Y-95589592D01*
X152418592Y-95472947D01*
X152502564Y-95330959D01*
X152548587Y-95172548D01*
X152551500Y-95135534D01*
X152551500Y-93784466D01*
X152548587Y-93747452D01*
X152502564Y-93589041D01*
X152418592Y-93447053D01*
X152418590Y-93447051D01*
X152418587Y-93447047D01*
X152301952Y-93330412D01*
X152301944Y-93330406D01*
X152245004Y-93296732D01*
X152197321Y-93245663D01*
X152184817Y-93176921D01*
X152211462Y-93112332D01*
X152245004Y-93083268D01*
X152301947Y-93049592D01*
X152418592Y-92932947D01*
X152502564Y-92790959D01*
X152548587Y-92632548D01*
X152551500Y-92595534D01*
X152551500Y-91244466D01*
X152548587Y-91207452D01*
X152502564Y-91049041D01*
X152418592Y-90907053D01*
X152418590Y-90907051D01*
X152418587Y-90907047D01*
X152301952Y-90790412D01*
X152301944Y-90790406D01*
X152245004Y-90756732D01*
X152197321Y-90705663D01*
X152184817Y-90636921D01*
X152211462Y-90572332D01*
X152245004Y-90543268D01*
X152301947Y-90509592D01*
X152418592Y-90392947D01*
X152502564Y-90250959D01*
X152548587Y-90092548D01*
X152551500Y-90055534D01*
X152551500Y-88704466D01*
X152548587Y-88667452D01*
X152546368Y-88659815D01*
X152502565Y-88509045D01*
X152502564Y-88509042D01*
X152502564Y-88509041D01*
X152418592Y-88367053D01*
X152418590Y-88367051D01*
X152418587Y-88367047D01*
X152301952Y-88250412D01*
X152301944Y-88250406D01*
X152245004Y-88216732D01*
X152197321Y-88165663D01*
X152184817Y-88096921D01*
X152211462Y-88032332D01*
X152245004Y-88003268D01*
X152301947Y-87969592D01*
X152418592Y-87852947D01*
X152502564Y-87710959D01*
X152548587Y-87552548D01*
X152551500Y-87515534D01*
X152551500Y-86164466D01*
X152548587Y-86127452D01*
X152546368Y-86119815D01*
X152502565Y-85969045D01*
X152502564Y-85969042D01*
X152502564Y-85969041D01*
X152437970Y-85859819D01*
X152418594Y-85827056D01*
X152418587Y-85827047D01*
X152301952Y-85710412D01*
X152301949Y-85710410D01*
X152301947Y-85710408D01*
X152244511Y-85676440D01*
X152196829Y-85625371D01*
X152184326Y-85556630D01*
X152210972Y-85492040D01*
X152244514Y-85462976D01*
X152301637Y-85429193D01*
X152301643Y-85429189D01*
X152418189Y-85312643D01*
X152418196Y-85312634D01*
X152502102Y-85170756D01*
X152502103Y-85170753D01*
X152548088Y-85012473D01*
X152548089Y-85012467D01*
X152550999Y-84975488D01*
X152550999Y-83624530D01*
X152550998Y-83624508D01*
X152548089Y-83587533D01*
X152502102Y-83429242D01*
X152418196Y-83287365D01*
X152418189Y-83287356D01*
X152301643Y-83170810D01*
X152301634Y-83170803D01*
X152244513Y-83137022D01*
X152196829Y-83085953D01*
X152184326Y-83017211D01*
X152210972Y-82952622D01*
X152244514Y-82923558D01*
X152301941Y-82889596D01*
X152301942Y-82889594D01*
X152301947Y-82889592D01*
X152418592Y-82772947D01*
X152502564Y-82630959D01*
X152548587Y-82472548D01*
X152551500Y-82435534D01*
X152551500Y-81084466D01*
X152548587Y-81047452D01*
X152502564Y-80889041D01*
X152418592Y-80747053D01*
X152418590Y-80747051D01*
X152418587Y-80747047D01*
X152301952Y-80630412D01*
X152301943Y-80630405D01*
X152159957Y-80546435D01*
X152159954Y-80546434D01*
X152001552Y-80500413D01*
X152001546Y-80500412D01*
X151964541Y-80497500D01*
X151964534Y-80497500D01*
X149705466Y-80497500D01*
X149705458Y-80497500D01*
X149668453Y-80500412D01*
X149668447Y-80500413D01*
X149510045Y-80546434D01*
X149510042Y-80546435D01*
X149368056Y-80630405D01*
X149368046Y-80630413D01*
X149271854Y-80726604D01*
X149257061Y-80739239D01*
X149177536Y-80797018D01*
X149037021Y-80937533D01*
X148920213Y-81098305D01*
X148829994Y-81275367D01*
X148829993Y-81275370D01*
X148768587Y-81464362D01*
X148737500Y-81660639D01*
X136022500Y-81660639D01*
X135991413Y-81464364D01*
X135930005Y-81275368D01*
X135930005Y-81275367D01*
X135839786Y-81098305D01*
X135722981Y-80937536D01*
X135582464Y-80797019D01*
X135502937Y-80739239D01*
X135488147Y-80726608D01*
X135391947Y-80630408D01*
X135391946Y-80630407D01*
X135391943Y-80630405D01*
X135249957Y-80546435D01*
X135249954Y-80546434D01*
X135091552Y-80500413D01*
X135091546Y-80500412D01*
X135054541Y-80497500D01*
X135054534Y-80497500D01*
X132795466Y-80497500D01*
X132795458Y-80497500D01*
X132758453Y-80500412D01*
X132758447Y-80500413D01*
X132600045Y-80546434D01*
X132600042Y-80546435D01*
X132458056Y-80630405D01*
X132458047Y-80630412D01*
X132341412Y-80747047D01*
X132341405Y-80747056D01*
X132257435Y-80889042D01*
X132257434Y-80889045D01*
X132211413Y-81047447D01*
X132211412Y-81047453D01*
X132208500Y-81084458D01*
X132208500Y-82435541D01*
X132211412Y-82472541D01*
X132211415Y-82472558D01*
X132211611Y-82473232D01*
X132211609Y-82473622D01*
X132212551Y-82478775D01*
X132211594Y-82478949D01*
X132211404Y-82543101D01*
X132180212Y-82595495D01*
X129955887Y-84819820D01*
X129879222Y-84934558D01*
X129826421Y-85062033D01*
X129826418Y-85062043D01*
X129799500Y-85197370D01*
X128500500Y-85197370D01*
X128500500Y-76624500D01*
X128520185Y-76557461D01*
X128572989Y-76511706D01*
X128624500Y-76500500D01*
X156125500Y-76500500D01*
X156192539Y-76520185D01*
G37*
%TD.AperFunction*%
%TD*%
M02*
