%TF.GenerationSoftware,KiCad,Pcbnew,10.0.3*%
%TF.CreationDate,2026-09-30T23:19:00+09:00*%
%TF.ProjectId,EMG,454d472e-6b69-4636-9164-5f7063625858,rev?*%
%TF.SameCoordinates,Original*%
%TF.FileFunction,Copper,L1,Top*%
%TF.FilePolarity,Positive*%
%FSLAX46Y46*%
G04 Gerber Fmt 4.6, Leading zero omitted, Abs format (unit mm)*
G04 Created by KiCad (PCBNEW 10.0.3) date 2026-09-30 23:19:00*
%MOMM*%
%LPD*%
G01*
G04 APERTURE LIST*
G04 Aperture macros list*
%AMRoundRect*
0 Rectangle with rounded corners*
0 $1 Rounding radius*
0 $2 $3 $4 $5 $6 $7 $8 $9 X,Y pos of 4 corners*
0 Add a 4 corners polygon primitive as box body*
4,1,4,$2,$3,$4,$5,$6,$7,$8,$9,$2,$3,0*
0 Add four circle primitives for the rounded corners*
1,1,$1+$1,$2,$3*
1,1,$1+$1,$4,$5*
1,1,$1+$1,$6,$7*
1,1,$1+$1,$8,$9*
0 Add four rect primitives between the rounded corners*
20,1,$1+$1,$2,$3,$4,$5,0*
20,1,$1+$1,$4,$5,$6,$7,0*
20,1,$1+$1,$6,$7,$8,$9,0*
20,1,$1+$1,$8,$9,$2,$3,0*%
G04 Aperture macros list end*
%TA.AperFunction,ComponentPad*%
%ADD10R,1.700000X1.700000*%
%TD*%
%TA.AperFunction,ComponentPad*%
%ADD11C,1.700000*%
%TD*%
%TA.AperFunction,SMDPad,CuDef*%
%ADD12RoundRect,0.250000X-0.262500X-0.450000X0.262500X-0.450000X0.262500X0.450000X-0.262500X0.450000X0*%
%TD*%
%TA.AperFunction,ComponentPad*%
%ADD13RoundRect,0.250000X-0.600000X-0.675000X0.600000X-0.675000X0.600000X0.675000X-0.600000X0.675000X0*%
%TD*%
%TA.AperFunction,ComponentPad*%
%ADD14O,1.700000X1.850000*%
%TD*%
%TA.AperFunction,SMDPad,CuDef*%
%ADD15RoundRect,0.250000X-0.250000X-0.475000X0.250000X-0.475000X0.250000X0.475000X-0.250000X0.475000X0*%
%TD*%
%TA.AperFunction,SMDPad,CuDef*%
%ADD16RoundRect,0.200000X0.600000X-0.200000X0.600000X0.200000X-0.600000X0.200000X-0.600000X-0.200000X0*%
%TD*%
%TA.AperFunction,SMDPad,CuDef*%
%ADD17RoundRect,0.250001X1.249999X-0.799999X1.249999X0.799999X-1.249999X0.799999X-1.249999X-0.799999X0*%
%TD*%
%TA.AperFunction,SMDPad,CuDef*%
%ADD18RoundRect,0.500000X-0.875000X-0.500000X0.875000X-0.500000X0.875000X0.500000X-0.875000X0.500000X0*%
%TD*%
%TA.AperFunction,SMDPad,CuDef*%
%ADD19C,1.700000*%
%TD*%
%TA.AperFunction,SMDPad,CuDef*%
%ADD20RoundRect,0.275000X0.975000X0.275000X-0.975000X0.275000X-0.975000X-0.275000X0.975000X-0.275000X0*%
%TD*%
%TA.AperFunction,SMDPad,CuDef*%
%ADD21RoundRect,0.625000X-0.750000X-0.625000X0.750000X-0.625000X0.750000X0.625000X-0.750000X0.625000X0*%
%TD*%
%TA.AperFunction,ViaPad*%
%ADD22C,0.600000*%
%TD*%
%TA.AperFunction,Conductor*%
%ADD23C,0.400000*%
%TD*%
G04 APERTURE END LIST*
D10*
%TO.P,SW1,1,A_1*%
%TO.N,Net-(SW1-A)*%
X188200000Y-113825000D03*
D11*
%TO.P,SW1,2,B_2*%
%TO.N,Net-(J1-Pin_3)*%
X188200000Y-116365000D03*
%TD*%
D12*
%TO.P,R,1*%
%TO.N,Net-(J1-Pin_2)*%
X183600000Y-102800000D03*
%TO.P,R,2*%
%TO.N,Net-(SW1-A)*%
X185425000Y-102800000D03*
%TD*%
D13*
%TO.P,J3,1,Pin_1_1*%
%TO.N,Net-(J3-Pin_1)*%
X177090000Y-115660000D03*
D14*
%TO.P,J3,2,Pin_2_2*%
%TO.N,Net-(J1-Pin_2)*%
X179590000Y-115660000D03*
%TO.P,J3,3,Pin_3_3*%
%TO.N,Net-(J1-Pin_3)*%
X182090000Y-115660000D03*
%TD*%
D13*
%TO.P,J4,1,Pin_1_1*%
%TO.N,Net-(J4-Pin_1)*%
X177090000Y-123160000D03*
D14*
%TO.P,J4,2,Pin_2_2*%
%TO.N,Net-(J1-Pin_2)*%
X179590000Y-123160000D03*
%TO.P,J4,3,Pin_3_3*%
%TO.N,Net-(J1-Pin_3)*%
X182090000Y-123160000D03*
%TD*%
D15*
%TO.P,C2,1*%
%TO.N,Net-(SW2-A)*%
X183600000Y-107750000D03*
%TO.P,C2,2*%
%TO.N,Net-(J1-Pin_3)*%
X185500000Y-107750000D03*
%TD*%
D16*
%TO.P,J5,1,Pin_1_1*%
%TO.N,Net-(J5-Pin_1)*%
X184900000Y-93325000D03*
%TO.P,J5,2,Pin_2_2*%
%TO.N,Net-(J5-Pin_2)*%
X184900000Y-92075000D03*
D17*
%TO.P,J5,MP*%
%TO.N,N/C*%
X187800000Y-95875000D03*
X187800000Y-89525000D03*
%TD*%
D12*
%TO.P,R2,1*%
%TO.N,Net-(J1-Pin_2)*%
X183600000Y-110200000D03*
%TO.P,R2,2*%
%TO.N,Net-(SW2-A)*%
X185425000Y-110200000D03*
%TD*%
D15*
%TO.P,C1,1*%
%TO.N,Net-(SW1-A)*%
X183600000Y-105250000D03*
%TO.P,C1,2*%
%TO.N,Net-(J1-Pin_3)*%
X185500000Y-105250000D03*
%TD*%
D13*
%TO.P,J2,1,Pin_1_1*%
%TO.N,Net-(J2-Pin_1)*%
X163590000Y-123160000D03*
D14*
%TO.P,J2,2,Pin_2_2*%
%TO.N,Net-(J1-Pin_2)*%
X166090000Y-123160000D03*
%TO.P,J2,3,Pin_3_3*%
%TO.N,Net-(J1-Pin_3)*%
X168590000Y-123160000D03*
%TD*%
D13*
%TO.P,J1,1,Pin_1_1*%
%TO.N,Net-(J1-Pin_1)*%
X163590000Y-115660000D03*
D14*
%TO.P,J1,2,Pin_2_2*%
%TO.N,Net-(J1-Pin_2)*%
X166090000Y-115660000D03*
%TO.P,J1,3,Pin_3_3*%
%TO.N,Net-(J1-Pin_3)*%
X168590000Y-115660000D03*
%TD*%
D10*
%TO.P,SW2,1,A_1*%
%TO.N,Net-(SW2-A)*%
X188200000Y-121325000D03*
D11*
%TO.P,SW2,2,B_2*%
%TO.N,Net-(J1-Pin_3)*%
X188200000Y-123865000D03*
%TD*%
D18*
%TO.P,U1,1,D0_1*%
%TO.N,Net-(J1-Pin_1)*%
X164415000Y-92540000D03*
%TO.P,U1,2,D1_2*%
%TO.N,Net-(J2-Pin_1)*%
X164415000Y-95080000D03*
%TO.P,U1,3,D2_3*%
%TO.N,Net-(J3-Pin_1)*%
X164415000Y-97620000D03*
%TO.P,U1,4,D3_4*%
%TO.N,Net-(J4-Pin_1)*%
X164415000Y-100160000D03*
%TO.P,U1,5,D4_5*%
%TO.N,unconnected-(U1-D4-Pad5)*%
X164415000Y-102700000D03*
%TO.P,U1,6,D5_6*%
%TO.N,unconnected-(U1-D5-Pad6)*%
X164415000Y-105240000D03*
%TO.P,U1,7,D6_7*%
%TO.N,unconnected-(U1-D6-Pad7)*%
X164415000Y-107780000D03*
%TO.P,U1,8,D7_8*%
%TO.N,Net-(SW2-A)*%
X180580000Y-107780000D03*
%TO.P,U1,9,D8_9*%
%TO.N,Net-(SW1-A)*%
X180580000Y-105240000D03*
%TO.P,U1,10,D9_10*%
%TO.N,unconnected-(U1-D9-Pad10)*%
X180580000Y-102700000D03*
%TO.P,U1,11,D10_11*%
%TO.N,unconnected-(U1-D10-Pad11)*%
X180580000Y-100160000D03*
%TO.P,U1,12,3V3_OUT_12*%
%TO.N,Net-(J1-Pin_2)*%
X180580000Y-97620000D03*
%TO.P,U1,13,GND_13*%
%TO.N,Net-(J1-Pin_3)*%
X180580000Y-95080000D03*
%TO.P,U1,14,VBUS_14*%
%TO.N,unconnected-(U1-VBUS-Pad14)*%
X180580000Y-92540000D03*
D19*
%TO.P,U1,15,MTDI_15*%
%TO.N,unconnected-(U1-MTDI-Pad15)*%
X171200000Y-91528000D03*
%TO.P,U1,16,MTDO_16*%
%TO.N,unconnected-(U1-MTDO-Pad16)*%
X173740000Y-91528000D03*
%TO.P,U1,17,EN_17*%
%TO.N,unconnected-(U1-EN-Pad17)*%
X171200000Y-94068000D03*
%TO.P,U1,18,GND_18*%
%TO.N,unconnected-(U1-GND-Pad18)*%
X173740000Y-94068000D03*
%TO.P,U1,19,MTMS_19*%
%TO.N,unconnected-(U1-MTMS-Pad19)*%
X171200000Y-96608000D03*
%TO.P,U1,20,MTCK_20*%
%TO.N,unconnected-(U1-MTCK-Pad20)*%
X173740000Y-96608000D03*
%TO.P,U1,21,USB_DN_21*%
%TO.N,unconnected-(U1-USB_DN-Pad21)*%
X171200000Y-99148000D03*
%TO.P,U1,22,USB_DP_22*%
%TO.N,unconnected-(U1-USB_DP-Pad22)*%
X173740000Y-99148000D03*
D20*
%TO.P,U1,23,VBAT_23*%
%TO.N,Net-(J5-Pin_1)*%
X168025000Y-99778000D03*
%TO.P,U1,24,GND_24*%
%TO.N,Net-(J5-Pin_2)*%
X168025000Y-97873000D03*
D21*
%TO.P,U1,25,PAD_25*%
%TO.N,unconnected-(U1-PAD-Pad25)*%
X173590000Y-102160000D03*
%TD*%
D22*
%TO.N,Net-(J1-Pin_3)*%
X182900000Y-95700000D03*
%TD*%
%TO.N,Net-(SW1-A)*%
D23*
X188200000Y-105587500D02*
X188200000Y-113825000D01*
X185412500Y-102800000D02*
X188200000Y-105587500D01*
X183590000Y-105240000D02*
X183600000Y-105250000D01*
X183600000Y-104612500D02*
X185412500Y-102800000D01*
X183600000Y-105250000D02*
X183600000Y-104612500D01*
X180580000Y-105240000D02*
X183590000Y-105240000D01*
%TO.N,Net-(J1-Pin_3)*%
X182280000Y-95080000D02*
X182900000Y-95700000D01*
X180580000Y-95080000D02*
X182280000Y-95080000D01*
X168660000Y-123160000D02*
X168590000Y-123160000D01*
X181660000Y-115660000D02*
X182090000Y-115660000D01*
%TO.N,Net-(J1-Pin_2)*%
X166090000Y-123160000D02*
X167415000Y-124485000D01*
X183587500Y-102800000D02*
X183587500Y-99252500D01*
X179630000Y-97620000D02*
X180580000Y-97620000D01*
X178000000Y-99250000D02*
X179630000Y-97620000D01*
X179800000Y-110200000D02*
X183587500Y-110200000D01*
X178000000Y-109000000D02*
X178000000Y-108400000D01*
X183587500Y-99252500D02*
X181955000Y-97620000D01*
X166090000Y-115660000D02*
X166090000Y-123160000D01*
X178000000Y-108400000D02*
X178000000Y-99250000D01*
X179590000Y-123160000D02*
X179590000Y-115660000D01*
X167415000Y-124485000D02*
X178265000Y-124485000D01*
X178265000Y-124485000D02*
X179590000Y-123160000D01*
X179590000Y-115660000D02*
X179590000Y-113600000D01*
X181955000Y-97620000D02*
X180580000Y-97620000D01*
X179590000Y-112690000D02*
X178000000Y-111100000D01*
X179590000Y-113600000D02*
X179590000Y-112690000D01*
X179800000Y-110200000D02*
X178000000Y-108400000D01*
X178000000Y-111100000D02*
X178000000Y-109000000D01*
%TO.N,Net-(J3-Pin_1)*%
X166190000Y-100690000D02*
X170000000Y-104500000D01*
X173160000Y-115660000D02*
X177090000Y-115660000D01*
X165790000Y-97620000D02*
X166190000Y-98020000D01*
X170000000Y-112500000D02*
X173160000Y-115660000D01*
X170000000Y-104500000D02*
X170000000Y-112500000D01*
X166190000Y-98020000D02*
X166190000Y-100690000D01*
X164415000Y-97620000D02*
X165790000Y-97620000D01*
%TO.N,Net-(J4-Pin_1)*%
X169000000Y-104629936D02*
X169000000Y-112660000D01*
X174840000Y-120910000D02*
X174840000Y-118500000D01*
X164415000Y-100160000D02*
X164530064Y-100160000D01*
X164530064Y-100160000D02*
X169000000Y-104629936D01*
X177090000Y-123160000D02*
X177090000Y-123305000D01*
X177090000Y-123160000D02*
X174840000Y-120910000D01*
X169000000Y-112660000D02*
X174840000Y-118500000D01*
%TO.N,Net-(SW2-A)*%
X185412500Y-118537500D02*
X188200000Y-121325000D01*
X183600000Y-107750000D02*
X183600000Y-108387500D01*
X185412500Y-110200000D02*
X185412500Y-118537500D01*
X183600000Y-108387500D02*
X185412500Y-110200000D01*
X183570000Y-107780000D02*
X183600000Y-107750000D01*
X180580000Y-107780000D02*
X183570000Y-107780000D01*
%TO.N,Net-(J5-Pin_1)*%
X170397000Y-90278000D02*
X180973064Y-90278000D01*
X169675000Y-99378000D02*
X169675000Y-91000000D01*
X184020064Y-93325000D02*
X184900000Y-93325000D01*
X169275000Y-99778000D02*
X169675000Y-99378000D01*
X180973064Y-90278000D02*
X184020064Y-93325000D01*
X168025000Y-99778000D02*
X169275000Y-99778000D01*
X169675000Y-91000000D02*
X170397000Y-90278000D01*
%TO.N,Net-(J5-Pin_2)*%
X180500000Y-89678000D02*
X169822000Y-89678000D01*
X183618592Y-92075000D02*
X184900000Y-92075000D01*
X168025000Y-91475000D02*
X168025000Y-97873000D01*
X181221592Y-89678000D02*
X183618592Y-92075000D01*
X169822000Y-89678000D02*
X168025000Y-91475000D01*
X180500000Y-89678000D02*
X181221592Y-89678000D01*
%TO.N,Net-(J2-Pin_1)*%
X162500000Y-95620000D02*
X163040000Y-95080000D01*
X164840000Y-122160000D02*
X164840000Y-114708834D01*
X162500000Y-112368834D02*
X162500000Y-95620000D01*
X164840000Y-114708834D02*
X162500000Y-112368834D01*
X163590000Y-123410000D02*
X164840000Y-122160000D01*
X163040000Y-95080000D02*
X164415000Y-95080000D01*
%TO.N,Net-(J1-Pin_1)*%
X163522500Y-92540000D02*
X164415000Y-92540000D01*
X161762500Y-113832500D02*
X161762500Y-94300000D01*
X161762500Y-94300000D02*
X163522500Y-92540000D01*
X163590000Y-115660000D02*
X161762500Y-113832500D01*
%TD*%
%TA.AperFunction,Conductor*%
%TO.N,Net-(J1-Pin_3)*%
G36*
X166495700Y-103116739D02*
G01*
X166502180Y-103122773D01*
X168263181Y-104883774D01*
X168296666Y-104945097D01*
X168299500Y-104971455D01*
X168299500Y-112591006D01*
X168299500Y-112728994D01*
X168299500Y-112728996D01*
X168299499Y-112728996D01*
X168326418Y-112864322D01*
X168326421Y-112864332D01*
X168379222Y-112991807D01*
X168455887Y-113106545D01*
X168455888Y-113106546D01*
X174103181Y-118753838D01*
X174136666Y-118815161D01*
X174139500Y-118841519D01*
X174139500Y-120841006D01*
X174139500Y-120978994D01*
X174139500Y-120978996D01*
X174139499Y-120978996D01*
X174166418Y-121114322D01*
X174166421Y-121114332D01*
X174219222Y-121241807D01*
X174295887Y-121356545D01*
X174295888Y-121356546D01*
X175703181Y-122763838D01*
X175736666Y-122825161D01*
X175739500Y-122851519D01*
X175739500Y-123286000D01*
X175739501Y-123660500D01*
X175719817Y-123727539D01*
X175667013Y-123773294D01*
X175615501Y-123784500D01*
X170001602Y-123784500D01*
X169934563Y-123764815D01*
X169888808Y-123712011D01*
X169878864Y-123642853D01*
X169883671Y-123622182D01*
X169906757Y-123551127D01*
X169929110Y-123410000D01*
X168936410Y-123410000D01*
X168986037Y-123324044D01*
X169015000Y-123215952D01*
X169015000Y-123104048D01*
X168986037Y-122995956D01*
X168936410Y-122910000D01*
X169929110Y-122910000D01*
X169906757Y-122768872D01*
X169841095Y-122566782D01*
X169744620Y-122377442D01*
X169619727Y-122205540D01*
X169619723Y-122205535D01*
X169469464Y-122055276D01*
X169469459Y-122055272D01*
X169297557Y-121930379D01*
X169108215Y-121833903D01*
X168906124Y-121768241D01*
X168840000Y-121757768D01*
X168840000Y-122813590D01*
X168754044Y-122763963D01*
X168645952Y-122735000D01*
X168534048Y-122735000D01*
X168425956Y-122763963D01*
X168340000Y-122813590D01*
X168340000Y-121757768D01*
X168339999Y-121757768D01*
X168273875Y-121768241D01*
X168071784Y-121833903D01*
X167882442Y-121930379D01*
X167710540Y-122055272D01*
X167710535Y-122055276D01*
X167560276Y-122205535D01*
X167560272Y-122205540D01*
X167440627Y-122370218D01*
X167385297Y-122412884D01*
X167315684Y-122418863D01*
X167253889Y-122386257D01*
X167239991Y-122370218D01*
X167120109Y-122205214D01*
X167120105Y-122205209D01*
X166969786Y-122054890D01*
X166841615Y-121961770D01*
X166798949Y-121906441D01*
X166790500Y-121861452D01*
X166790500Y-116958547D01*
X166810185Y-116891508D01*
X166841614Y-116858230D01*
X166969792Y-116765104D01*
X167120104Y-116614792D01*
X167239991Y-116449779D01*
X167295320Y-116407115D01*
X167364933Y-116401136D01*
X167426729Y-116433741D01*
X167440627Y-116449781D01*
X167560272Y-116614459D01*
X167560276Y-116614464D01*
X167710535Y-116764723D01*
X167710540Y-116764727D01*
X167882442Y-116889620D01*
X168071782Y-116986095D01*
X168273871Y-117051757D01*
X168340000Y-117062231D01*
X168340000Y-116006409D01*
X168425956Y-116056037D01*
X168534048Y-116085000D01*
X168645952Y-116085000D01*
X168754044Y-116056037D01*
X168840000Y-116006409D01*
X168840000Y-117062230D01*
X168906126Y-117051757D01*
X168906129Y-117051757D01*
X169108217Y-116986095D01*
X169297557Y-116889620D01*
X169469459Y-116764727D01*
X169469464Y-116764723D01*
X169619723Y-116614464D01*
X169619727Y-116614459D01*
X169744620Y-116442557D01*
X169841095Y-116253217D01*
X169906757Y-116051127D01*
X169929110Y-115910000D01*
X168936410Y-115910000D01*
X168986037Y-115824044D01*
X169015000Y-115715952D01*
X169015000Y-115604048D01*
X168986037Y-115495956D01*
X168936410Y-115410000D01*
X169929110Y-115410000D01*
X169906757Y-115268872D01*
X169841095Y-115066782D01*
X169744620Y-114877442D01*
X169619727Y-114705540D01*
X169619723Y-114705535D01*
X169469464Y-114555276D01*
X169469459Y-114555272D01*
X169297557Y-114430379D01*
X169108215Y-114333903D01*
X168906124Y-114268241D01*
X168840000Y-114257768D01*
X168840000Y-115313590D01*
X168754044Y-115263963D01*
X168645952Y-115235000D01*
X168534048Y-115235000D01*
X168425956Y-115263963D01*
X168340000Y-115313590D01*
X168340000Y-114257768D01*
X168339999Y-114257768D01*
X168273875Y-114268241D01*
X168071784Y-114333903D01*
X167882442Y-114430379D01*
X167710540Y-114555272D01*
X167710535Y-114555276D01*
X167560276Y-114705535D01*
X167560272Y-114705540D01*
X167440627Y-114870218D01*
X167385297Y-114912884D01*
X167315684Y-114918863D01*
X167253889Y-114886257D01*
X167239991Y-114870218D01*
X167120109Y-114705214D01*
X167120105Y-114705209D01*
X166969786Y-114554890D01*
X166797820Y-114429951D01*
X166608414Y-114333444D01*
X166608413Y-114333443D01*
X166608412Y-114333443D01*
X166406243Y-114267754D01*
X166406241Y-114267753D01*
X166406240Y-114267753D01*
X166244957Y-114242208D01*
X166196287Y-114234500D01*
X165983713Y-114234500D01*
X165944202Y-114240757D01*
X165773759Y-114267753D01*
X165571588Y-114333442D01*
X165571583Y-114333444D01*
X165565366Y-114336612D01*
X165496696Y-114349503D01*
X165431958Y-114323222D01*
X165405979Y-114295015D01*
X165384114Y-114262291D01*
X163236819Y-112114996D01*
X163203334Y-112053673D01*
X163200500Y-112027315D01*
X163200500Y-109387965D01*
X163220185Y-109320926D01*
X163272989Y-109275171D01*
X163342147Y-109265227D01*
X163358607Y-109268748D01*
X163362582Y-109269886D01*
X163481963Y-109280500D01*
X165348036Y-109280499D01*
X165467418Y-109269886D01*
X165663049Y-109213909D01*
X165843407Y-109119698D01*
X166001109Y-108991109D01*
X166129698Y-108833407D01*
X166223909Y-108653049D01*
X166279886Y-108457418D01*
X166290500Y-108338037D01*
X166290499Y-107221964D01*
X166279886Y-107102582D01*
X166223909Y-106906951D01*
X166129698Y-106726593D01*
X166016983Y-106588359D01*
X165989875Y-106523965D01*
X166001884Y-106455135D01*
X166016981Y-106431642D01*
X166129698Y-106293407D01*
X166223909Y-106113049D01*
X166279886Y-105917418D01*
X166290500Y-105798037D01*
X166290499Y-104681964D01*
X166279886Y-104562582D01*
X166223909Y-104366951D01*
X166129698Y-104186593D01*
X166016983Y-104048359D01*
X165989875Y-103983965D01*
X166001884Y-103915135D01*
X166016981Y-103891642D01*
X166129698Y-103753407D01*
X166223909Y-103573049D01*
X166279886Y-103377418D01*
X166290500Y-103258037D01*
X166290499Y-103210453D01*
X166310182Y-103143417D01*
X166362985Y-103097661D01*
X166432144Y-103087716D01*
X166495700Y-103116739D01*
G37*
%TD.AperFunction*%
%TA.AperFunction,Conductor*%
G36*
X190342539Y-87720185D02*
G01*
X190388294Y-87772989D01*
X190399500Y-87824500D01*
X190399500Y-126625500D01*
X190379815Y-126692539D01*
X190327011Y-126738294D01*
X190275500Y-126749500D01*
X158324500Y-126749500D01*
X158257461Y-126729815D01*
X158211706Y-126677011D01*
X158200500Y-126625500D01*
X158200500Y-113901496D01*
X161061999Y-113901496D01*
X161088918Y-114036822D01*
X161088921Y-114036832D01*
X161141722Y-114164307D01*
X161218387Y-114279045D01*
X161218388Y-114279046D01*
X162203181Y-115263838D01*
X162236666Y-115325161D01*
X162239500Y-115351519D01*
X162239500Y-116385001D01*
X162239501Y-116385019D01*
X162250000Y-116487796D01*
X162250001Y-116487799D01*
X162295894Y-116626294D01*
X162305186Y-116654334D01*
X162397288Y-116803656D01*
X162521344Y-116927712D01*
X162670666Y-117019814D01*
X162837203Y-117074999D01*
X162939991Y-117085500D01*
X164015500Y-117085499D01*
X164082539Y-117105183D01*
X164128294Y-117157987D01*
X164139500Y-117209499D01*
X164139500Y-121610500D01*
X164119815Y-121677539D01*
X164067011Y-121723294D01*
X164015500Y-121734500D01*
X162939998Y-121734500D01*
X162939981Y-121734501D01*
X162837203Y-121745000D01*
X162837200Y-121745001D01*
X162670668Y-121800185D01*
X162670663Y-121800187D01*
X162521342Y-121892289D01*
X162397289Y-122016342D01*
X162305187Y-122165663D01*
X162305185Y-122165668D01*
X162300325Y-122180334D01*
X162250001Y-122332203D01*
X162250001Y-122332204D01*
X162250000Y-122332204D01*
X162239500Y-122434983D01*
X162239500Y-123885001D01*
X162239501Y-123885018D01*
X162250000Y-123987796D01*
X162250001Y-123987799D01*
X162295894Y-124126294D01*
X162305186Y-124154334D01*
X162397288Y-124303656D01*
X162521344Y-124427712D01*
X162670666Y-124519814D01*
X162837203Y-124574999D01*
X162939991Y-124585500D01*
X164240008Y-124585499D01*
X164342797Y-124574999D01*
X164509334Y-124519814D01*
X164658656Y-124427712D01*
X164782712Y-124303656D01*
X164874814Y-124154334D01*
X164874814Y-124154331D01*
X164878178Y-124148879D01*
X164930126Y-124102154D01*
X164999088Y-124090931D01*
X165063170Y-124118774D01*
X165071398Y-124126294D01*
X165210213Y-124265109D01*
X165382179Y-124390048D01*
X165382181Y-124390049D01*
X165382184Y-124390051D01*
X165571588Y-124486557D01*
X165773757Y-124552246D01*
X165983713Y-124585500D01*
X165983714Y-124585500D01*
X166196286Y-124585500D01*
X166196287Y-124585500D01*
X166406243Y-124552246D01*
X166406264Y-124552239D01*
X166407515Y-124551939D01*
X166408023Y-124551964D01*
X166411056Y-124551484D01*
X166411156Y-124552120D01*
X166477298Y-124555415D01*
X166524169Y-124584826D01*
X166968453Y-125029111D01*
X166968454Y-125029112D01*
X167083192Y-125105777D01*
X167210667Y-125158578D01*
X167210672Y-125158580D01*
X167210676Y-125158580D01*
X167210677Y-125158581D01*
X167346003Y-125185500D01*
X167346006Y-125185500D01*
X178333996Y-125185500D01*
X178425040Y-125167389D01*
X178469328Y-125158580D01*
X178533069Y-125132177D01*
X178596807Y-125105777D01*
X178596808Y-125105776D01*
X178596811Y-125105775D01*
X178711543Y-125029114D01*
X179155832Y-124584823D01*
X179217151Y-124551341D01*
X179268879Y-124551897D01*
X179268945Y-124551484D01*
X179271749Y-124551928D01*
X179272469Y-124551936D01*
X179273743Y-124552241D01*
X179273757Y-124552246D01*
X179483713Y-124585500D01*
X179483714Y-124585500D01*
X179696286Y-124585500D01*
X179696287Y-124585500D01*
X179906243Y-124552246D01*
X180108412Y-124486557D01*
X180297816Y-124390051D01*
X180379197Y-124330925D01*
X180469786Y-124265109D01*
X180469788Y-124265106D01*
X180469792Y-124265104D01*
X180620104Y-124114792D01*
X180739991Y-123949779D01*
X180795320Y-123907115D01*
X180864933Y-123901136D01*
X180926729Y-123933741D01*
X180940627Y-123949781D01*
X181060272Y-124114459D01*
X181060276Y-124114464D01*
X181210535Y-124264723D01*
X181210540Y-124264727D01*
X181382442Y-124389620D01*
X181571782Y-124486095D01*
X181773871Y-124551757D01*
X181840000Y-124562231D01*
X181840000Y-123506409D01*
X181925956Y-123556037D01*
X182034048Y-123585000D01*
X182145952Y-123585000D01*
X182254044Y-123556037D01*
X182340000Y-123506409D01*
X182340000Y-124562230D01*
X182406126Y-124551757D01*
X182406129Y-124551757D01*
X182608217Y-124486095D01*
X182797557Y-124389620D01*
X182969459Y-124264727D01*
X182969464Y-124264723D01*
X183119723Y-124114464D01*
X183119727Y-124114459D01*
X183244620Y-123942557D01*
X183341095Y-123753217D01*
X183353330Y-123715563D01*
X183406757Y-123551127D01*
X183429110Y-123410000D01*
X182436410Y-123410000D01*
X182486037Y-123324044D01*
X182515000Y-123215952D01*
X182515000Y-123104048D01*
X182486037Y-122995956D01*
X182436410Y-122910000D01*
X183429110Y-122910000D01*
X183406757Y-122768872D01*
X183341095Y-122566782D01*
X183244620Y-122377442D01*
X183119727Y-122205540D01*
X183119723Y-122205535D01*
X182969464Y-122055276D01*
X182969459Y-122055272D01*
X182797557Y-121930379D01*
X182608215Y-121833903D01*
X182406124Y-121768241D01*
X182340000Y-121757768D01*
X182340000Y-122813590D01*
X182254044Y-122763963D01*
X182145952Y-122735000D01*
X182034048Y-122735000D01*
X181925956Y-122763963D01*
X181840000Y-122813590D01*
X181840000Y-121757768D01*
X181839999Y-121757768D01*
X181773875Y-121768241D01*
X181571784Y-121833903D01*
X181382442Y-121930379D01*
X181210540Y-122055272D01*
X181210535Y-122055276D01*
X181060276Y-122205535D01*
X181060272Y-122205540D01*
X180940627Y-122370218D01*
X180885297Y-122412884D01*
X180815684Y-122418863D01*
X180753889Y-122386257D01*
X180739991Y-122370218D01*
X180620109Y-122205214D01*
X180620105Y-122205209D01*
X180469786Y-122054890D01*
X180341615Y-121961770D01*
X180298949Y-121906441D01*
X180290500Y-121861452D01*
X180290500Y-116958547D01*
X180310185Y-116891508D01*
X180341614Y-116858230D01*
X180469792Y-116765104D01*
X180620104Y-116614792D01*
X180739991Y-116449779D01*
X180795320Y-116407115D01*
X180864933Y-116401136D01*
X180926729Y-116433741D01*
X180940627Y-116449781D01*
X181060272Y-116614459D01*
X181060276Y-116614464D01*
X181210535Y-116764723D01*
X181210540Y-116764727D01*
X181382442Y-116889620D01*
X181571782Y-116986095D01*
X181773871Y-117051757D01*
X181840000Y-117062231D01*
X181840000Y-116006409D01*
X181925956Y-116056037D01*
X182034048Y-116085000D01*
X182145952Y-116085000D01*
X182254044Y-116056037D01*
X182340000Y-116006409D01*
X182340000Y-117062230D01*
X182406126Y-117051757D01*
X182406129Y-117051757D01*
X182608217Y-116986095D01*
X182797557Y-116889620D01*
X182969459Y-116764727D01*
X182969464Y-116764723D01*
X183119723Y-116614464D01*
X183119727Y-116614459D01*
X183244620Y-116442557D01*
X183341095Y-116253217D01*
X183406757Y-116051127D01*
X183429110Y-115910000D01*
X182436410Y-115910000D01*
X182486037Y-115824044D01*
X182515000Y-115715952D01*
X182515000Y-115604048D01*
X182486037Y-115495956D01*
X182436410Y-115410000D01*
X183429110Y-115410000D01*
X183406757Y-115268872D01*
X183341095Y-115066782D01*
X183244620Y-114877442D01*
X183119727Y-114705540D01*
X183119723Y-114705535D01*
X182969464Y-114555276D01*
X182969459Y-114555272D01*
X182797557Y-114430379D01*
X182608215Y-114333903D01*
X182406124Y-114268241D01*
X182340000Y-114257768D01*
X182340000Y-115313590D01*
X182254044Y-115263963D01*
X182145952Y-115235000D01*
X182034048Y-115235000D01*
X181925956Y-115263963D01*
X181840000Y-115313590D01*
X181840000Y-114257768D01*
X181839999Y-114257768D01*
X181773875Y-114268241D01*
X181571784Y-114333903D01*
X181382442Y-114430379D01*
X181210540Y-114555272D01*
X181210535Y-114555276D01*
X181060276Y-114705535D01*
X181060272Y-114705540D01*
X180940627Y-114870218D01*
X180885297Y-114912884D01*
X180815684Y-114918863D01*
X180753889Y-114886257D01*
X180739991Y-114870218D01*
X180620109Y-114705214D01*
X180620105Y-114705209D01*
X180469786Y-114554890D01*
X180341615Y-114461770D01*
X180298949Y-114406441D01*
X180290500Y-114361452D01*
X180290500Y-112621006D01*
X180284532Y-112591007D01*
X180284532Y-112591004D01*
X180263581Y-112485679D01*
X180263580Y-112485672D01*
X180258953Y-112474501D01*
X180210777Y-112358192D01*
X180134112Y-112243454D01*
X178736819Y-110846161D01*
X178703334Y-110784838D01*
X178700500Y-110758480D01*
X178700500Y-110390518D01*
X178720185Y-110323479D01*
X178772989Y-110277724D01*
X178842147Y-110267780D01*
X178905703Y-110296805D01*
X178912181Y-110302837D01*
X179255886Y-110646542D01*
X179309353Y-110700009D01*
X179353459Y-110744115D01*
X179468182Y-110820771D01*
X179468186Y-110820773D01*
X179468189Y-110820775D01*
X179542866Y-110851707D01*
X179595671Y-110873580D01*
X179622591Y-110878934D01*
X179719630Y-110898237D01*
X179731006Y-110900500D01*
X179731007Y-110900500D01*
X182541592Y-110900500D01*
X182608631Y-110920185D01*
X182647136Y-110964271D01*
X182648895Y-110963187D01*
X182652685Y-110969331D01*
X182652686Y-110969334D01*
X182744788Y-111118656D01*
X182868844Y-111242712D01*
X183018166Y-111334814D01*
X183184703Y-111389999D01*
X183287491Y-111400500D01*
X183912508Y-111400499D01*
X183912516Y-111400498D01*
X183912519Y-111400498D01*
X183968802Y-111394748D01*
X184015297Y-111389999D01*
X184181834Y-111334814D01*
X184331156Y-111242712D01*
X184424821Y-111149046D01*
X184432762Y-111144710D01*
X184438188Y-111137463D01*
X184462947Y-111128228D01*
X184486140Y-111115564D01*
X184495169Y-111116209D01*
X184503652Y-111113046D01*
X184529474Y-111118663D01*
X184555832Y-111120548D01*
X184564884Y-111126365D01*
X184571925Y-111127897D01*
X184600180Y-111149048D01*
X184675682Y-111224550D01*
X184709166Y-111285871D01*
X184712000Y-111312230D01*
X184712000Y-118468506D01*
X184712000Y-118606494D01*
X184712000Y-118606496D01*
X184711999Y-118606496D01*
X184738918Y-118741822D01*
X184738921Y-118741832D01*
X184791722Y-118869307D01*
X184868387Y-118984045D01*
X184868388Y-118984046D01*
X186813181Y-120928838D01*
X186846666Y-120990161D01*
X186849500Y-121016519D01*
X186849500Y-122222870D01*
X186849501Y-122222876D01*
X186855908Y-122282483D01*
X186906202Y-122417328D01*
X186906206Y-122417335D01*
X186992452Y-122532544D01*
X186992455Y-122532547D01*
X187107664Y-122618793D01*
X187107671Y-122618797D01*
X187152618Y-122635561D01*
X187242517Y-122669091D01*
X187302127Y-122675500D01*
X187312685Y-122675499D01*
X187379723Y-122695179D01*
X187400372Y-122711818D01*
X188070591Y-123382037D01*
X188007007Y-123399075D01*
X187892993Y-123464901D01*
X187799901Y-123557993D01*
X187734075Y-123672007D01*
X187717037Y-123735591D01*
X187084728Y-123103282D01*
X187084727Y-123103282D01*
X187045380Y-123157439D01*
X186948904Y-123346782D01*
X186883242Y-123548869D01*
X186883242Y-123548872D01*
X186850000Y-123758753D01*
X186850000Y-123971246D01*
X186883242Y-124181127D01*
X186883242Y-124181130D01*
X186948904Y-124383217D01*
X187045375Y-124572550D01*
X187084728Y-124626716D01*
X187717037Y-123994408D01*
X187734075Y-124057993D01*
X187799901Y-124172007D01*
X187892993Y-124265099D01*
X188007007Y-124330925D01*
X188070590Y-124347962D01*
X187438282Y-124980269D01*
X187438282Y-124980270D01*
X187492449Y-125019624D01*
X187681782Y-125116095D01*
X187883870Y-125181757D01*
X188093754Y-125215000D01*
X188306246Y-125215000D01*
X188516127Y-125181757D01*
X188516130Y-125181757D01*
X188718217Y-125116095D01*
X188907554Y-125019622D01*
X188961716Y-124980270D01*
X188961717Y-124980270D01*
X188329408Y-124347962D01*
X188392993Y-124330925D01*
X188507007Y-124265099D01*
X188600099Y-124172007D01*
X188665925Y-124057993D01*
X188682962Y-123994408D01*
X189315270Y-124626717D01*
X189315270Y-124626716D01*
X189354622Y-124572554D01*
X189451095Y-124383217D01*
X189516757Y-124181130D01*
X189516757Y-124181127D01*
X189550000Y-123971246D01*
X189550000Y-123758753D01*
X189516757Y-123548872D01*
X189516757Y-123548869D01*
X189451095Y-123346782D01*
X189354624Y-123157449D01*
X189315270Y-123103282D01*
X189315269Y-123103282D01*
X188682962Y-123735590D01*
X188665925Y-123672007D01*
X188600099Y-123557993D01*
X188507007Y-123464901D01*
X188392993Y-123399075D01*
X188329409Y-123382037D01*
X188999627Y-122711818D01*
X189060950Y-122678333D01*
X189087307Y-122675499D01*
X189097872Y-122675499D01*
X189157483Y-122669091D01*
X189292331Y-122618796D01*
X189407546Y-122532546D01*
X189493796Y-122417331D01*
X189544091Y-122282483D01*
X189550500Y-122222873D01*
X189550499Y-120427128D01*
X189544091Y-120367517D01*
X189493796Y-120232669D01*
X189493795Y-120232668D01*
X189493793Y-120232664D01*
X189407547Y-120117455D01*
X189407544Y-120117452D01*
X189292335Y-120031206D01*
X189292328Y-120031202D01*
X189157482Y-119980908D01*
X189157483Y-119980908D01*
X189097883Y-119974501D01*
X189097881Y-119974500D01*
X189097873Y-119974500D01*
X189097865Y-119974500D01*
X187891519Y-119974500D01*
X187824480Y-119954815D01*
X187803838Y-119938181D01*
X186149319Y-118283662D01*
X186115834Y-118222339D01*
X186113000Y-118195981D01*
X186113000Y-111336867D01*
X186132685Y-111269828D01*
X186151886Y-111248656D01*
X186151049Y-111247819D01*
X186174320Y-111224548D01*
X186280212Y-111118656D01*
X186372314Y-110969334D01*
X186427499Y-110802797D01*
X186438000Y-110700009D01*
X186437999Y-109699992D01*
X186427499Y-109597203D01*
X186372314Y-109430666D01*
X186280212Y-109281344D01*
X186156156Y-109157288D01*
X186082763Y-109112019D01*
X186036040Y-109060072D01*
X186024817Y-108991109D01*
X186052661Y-108927027D01*
X186082765Y-108900942D01*
X186218343Y-108817317D01*
X186342315Y-108693345D01*
X186434356Y-108544124D01*
X186434358Y-108544119D01*
X186489505Y-108377697D01*
X186489506Y-108377690D01*
X186499999Y-108274986D01*
X186500000Y-108274973D01*
X186500000Y-108000000D01*
X185624000Y-108000000D01*
X185556961Y-107980315D01*
X185511206Y-107927511D01*
X185500000Y-107876000D01*
X185500000Y-107750000D01*
X185374000Y-107750000D01*
X185306961Y-107730315D01*
X185261206Y-107677511D01*
X185250000Y-107626000D01*
X185250000Y-107500000D01*
X185750000Y-107500000D01*
X186499999Y-107500000D01*
X186499999Y-107225028D01*
X186499998Y-107225013D01*
X186489505Y-107122302D01*
X186434358Y-106955880D01*
X186434356Y-106955875D01*
X186342315Y-106806654D01*
X186218345Y-106682684D01*
X186093273Y-106605539D01*
X186046549Y-106553591D01*
X186035326Y-106484628D01*
X186063170Y-106420546D01*
X186093273Y-106394461D01*
X186218345Y-106317315D01*
X186342315Y-106193345D01*
X186434356Y-106044124D01*
X186434358Y-106044119D01*
X186489505Y-105877697D01*
X186489506Y-105877690D01*
X186499999Y-105774986D01*
X186500000Y-105774973D01*
X186500000Y-105500000D01*
X185750000Y-105500000D01*
X185750000Y-107500000D01*
X185250000Y-107500000D01*
X185250000Y-105374000D01*
X185269685Y-105306961D01*
X185322489Y-105261206D01*
X185374000Y-105250000D01*
X185500000Y-105250000D01*
X185500000Y-105124000D01*
X185519685Y-105056961D01*
X185572489Y-105011206D01*
X185624000Y-105000000D01*
X186522245Y-105000000D01*
X186534563Y-104993274D01*
X186604255Y-104998258D01*
X186648602Y-105026759D01*
X187463181Y-105841338D01*
X187496666Y-105902661D01*
X187499500Y-105929019D01*
X187499500Y-112350500D01*
X187479815Y-112417539D01*
X187427011Y-112463294D01*
X187375502Y-112474500D01*
X187302130Y-112474500D01*
X187302123Y-112474501D01*
X187242516Y-112480908D01*
X187107671Y-112531202D01*
X187107664Y-112531206D01*
X186992455Y-112617452D01*
X186992452Y-112617455D01*
X186906206Y-112732664D01*
X186906202Y-112732671D01*
X186855908Y-112867517D01*
X186849501Y-112927116D01*
X186849501Y-112927123D01*
X186849500Y-112927135D01*
X186849500Y-114722870D01*
X186849501Y-114722876D01*
X186855908Y-114782483D01*
X186906202Y-114917328D01*
X186906206Y-114917335D01*
X186992452Y-115032544D01*
X186992455Y-115032547D01*
X187107664Y-115118793D01*
X187107671Y-115118797D01*
X187152618Y-115135561D01*
X187242517Y-115169091D01*
X187302127Y-115175500D01*
X187312685Y-115175499D01*
X187379723Y-115195179D01*
X187400372Y-115211818D01*
X188070591Y-115882037D01*
X188007007Y-115899075D01*
X187892993Y-115964901D01*
X187799901Y-116057993D01*
X187734075Y-116172007D01*
X187717037Y-116235591D01*
X187084728Y-115603282D01*
X187084727Y-115603282D01*
X187045380Y-115657439D01*
X186948904Y-115846782D01*
X186883242Y-116048869D01*
X186883242Y-116048872D01*
X186850000Y-116258753D01*
X186850000Y-116471246D01*
X186883242Y-116681127D01*
X186883242Y-116681130D01*
X186948904Y-116883217D01*
X187045375Y-117072550D01*
X187084728Y-117126716D01*
X187717037Y-116494408D01*
X187734075Y-116557993D01*
X187799901Y-116672007D01*
X187892993Y-116765099D01*
X188007007Y-116830925D01*
X188070590Y-116847962D01*
X187438282Y-117480269D01*
X187438282Y-117480270D01*
X187492449Y-117519624D01*
X187681782Y-117616095D01*
X187883870Y-117681757D01*
X188093754Y-117715000D01*
X188306246Y-117715000D01*
X188516127Y-117681757D01*
X188516130Y-117681757D01*
X188718217Y-117616095D01*
X188907554Y-117519622D01*
X188961716Y-117480270D01*
X188961717Y-117480270D01*
X188329408Y-116847962D01*
X188392993Y-116830925D01*
X188507007Y-116765099D01*
X188600099Y-116672007D01*
X188665925Y-116557993D01*
X188682962Y-116494408D01*
X189315270Y-117126717D01*
X189315270Y-117126716D01*
X189354622Y-117072554D01*
X189451095Y-116883217D01*
X189516757Y-116681130D01*
X189516757Y-116681127D01*
X189550000Y-116471246D01*
X189550000Y-116258753D01*
X189516757Y-116048872D01*
X189516757Y-116048869D01*
X189451095Y-115846782D01*
X189354624Y-115657449D01*
X189315270Y-115603282D01*
X189315269Y-115603282D01*
X188682962Y-116235590D01*
X188665925Y-116172007D01*
X188600099Y-116057993D01*
X188507007Y-115964901D01*
X188392993Y-115899075D01*
X188329409Y-115882037D01*
X188999627Y-115211818D01*
X189060950Y-115178333D01*
X189087307Y-115175499D01*
X189097872Y-115175499D01*
X189157483Y-115169091D01*
X189292331Y-115118796D01*
X189407546Y-115032546D01*
X189493796Y-114917331D01*
X189544091Y-114782483D01*
X189550500Y-114722873D01*
X189550499Y-112927128D01*
X189544091Y-112867517D01*
X189542899Y-112864322D01*
X189493797Y-112732671D01*
X189493793Y-112732664D01*
X189407547Y-112617455D01*
X189407544Y-112617452D01*
X189292335Y-112531206D01*
X189292328Y-112531202D01*
X189157482Y-112480908D01*
X189157483Y-112480908D01*
X189097883Y-112474501D01*
X189097881Y-112474500D01*
X189097873Y-112474500D01*
X189097865Y-112474500D01*
X189024500Y-112474500D01*
X188957461Y-112454815D01*
X188911706Y-112402011D01*
X188900500Y-112350500D01*
X188900500Y-105518504D01*
X188873581Y-105383177D01*
X188873580Y-105383176D01*
X188873580Y-105383172D01*
X188869781Y-105374000D01*
X188820777Y-105255693D01*
X188820776Y-105255691D01*
X188816973Y-105250000D01*
X188770873Y-105181006D01*
X188770871Y-105181003D01*
X188744116Y-105140959D01*
X186474318Y-102871161D01*
X186440833Y-102809838D01*
X186437999Y-102783480D01*
X186437999Y-102299998D01*
X186437998Y-102299981D01*
X186427499Y-102197203D01*
X186427498Y-102197200D01*
X186372314Y-102030666D01*
X186280212Y-101881344D01*
X186156156Y-101757288D01*
X186006834Y-101665186D01*
X185840297Y-101610001D01*
X185840295Y-101610000D01*
X185737510Y-101599500D01*
X185112498Y-101599500D01*
X185112480Y-101599501D01*
X185009703Y-101610000D01*
X185009700Y-101610001D01*
X184843168Y-101665185D01*
X184843163Y-101665187D01*
X184693842Y-101757289D01*
X184600181Y-101850951D01*
X184592334Y-101855235D01*
X184586989Y-101862403D01*
X184562144Y-101871720D01*
X184538858Y-101884436D01*
X184529940Y-101883798D01*
X184521569Y-101886938D01*
X184495632Y-101881344D01*
X184469166Y-101879452D01*
X184460205Y-101873704D01*
X184453270Y-101872209D01*
X184425354Y-101851351D01*
X184424977Y-101851109D01*
X184331156Y-101757288D01*
X184330265Y-101756738D01*
X184324477Y-101750971D01*
X184310958Y-101726319D01*
X184294712Y-101703375D01*
X184293110Y-101693772D01*
X184290882Y-101689709D01*
X184291339Y-101683151D01*
X184288000Y-101663132D01*
X184288000Y-99183504D01*
X184261081Y-99048177D01*
X184261080Y-99048176D01*
X184261080Y-99048172D01*
X184260047Y-99045679D01*
X184208276Y-98920691D01*
X184206606Y-98918192D01*
X184150276Y-98833887D01*
X184131614Y-98805957D01*
X184131612Y-98805954D01*
X182491818Y-97166160D01*
X182458333Y-97104837D01*
X182455499Y-97078479D01*
X182455499Y-97061971D01*
X182455499Y-97061964D01*
X182444886Y-96942582D01*
X182388909Y-96746951D01*
X182294698Y-96566593D01*
X182181661Y-96427964D01*
X182154552Y-96363568D01*
X182166561Y-96294738D01*
X182181662Y-96271241D01*
X182294278Y-96133130D01*
X182388442Y-95952861D01*
X182444390Y-95757328D01*
X182444391Y-95757325D01*
X182454999Y-95638000D01*
X182455000Y-95637998D01*
X182455000Y-95024984D01*
X185799500Y-95024984D01*
X185799500Y-96725015D01*
X185810000Y-96827795D01*
X185810001Y-96827797D01*
X185837593Y-96911065D01*
X185865186Y-96994335D01*
X185865187Y-96994337D01*
X185957286Y-97143651D01*
X185957289Y-97143655D01*
X186081344Y-97267710D01*
X186081348Y-97267713D01*
X186230662Y-97359812D01*
X186230664Y-97359813D01*
X186230666Y-97359814D01*
X186397203Y-97414999D01*
X186499992Y-97425500D01*
X186499997Y-97425500D01*
X189100003Y-97425500D01*
X189100008Y-97425500D01*
X189202797Y-97414999D01*
X189369334Y-97359814D01*
X189518655Y-97267711D01*
X189642711Y-97143655D01*
X189734814Y-96994334D01*
X189789999Y-96827797D01*
X189800500Y-96725008D01*
X189800500Y-95024992D01*
X189789999Y-94922203D01*
X189734814Y-94755666D01*
X189724046Y-94738209D01*
X189642713Y-94606348D01*
X189642710Y-94606344D01*
X189518655Y-94482289D01*
X189518651Y-94482286D01*
X189369337Y-94390187D01*
X189369335Y-94390186D01*
X189286065Y-94362593D01*
X189202797Y-94335001D01*
X189202795Y-94335000D01*
X189100015Y-94324500D01*
X189100008Y-94324500D01*
X186499992Y-94324500D01*
X186499984Y-94324500D01*
X186397204Y-94335000D01*
X186397203Y-94335001D01*
X186230664Y-94390186D01*
X186230662Y-94390187D01*
X186081348Y-94482286D01*
X186081344Y-94482289D01*
X185957289Y-94606344D01*
X185957286Y-94606348D01*
X185865187Y-94755662D01*
X185865186Y-94755664D01*
X185810001Y-94922203D01*
X185810000Y-94922204D01*
X185799500Y-95024984D01*
X182455000Y-95024984D01*
X182455000Y-94522002D01*
X182454999Y-94521999D01*
X182444391Y-94402674D01*
X182444390Y-94402671D01*
X182388442Y-94207138D01*
X182294278Y-94026870D01*
X182181661Y-93888757D01*
X182154552Y-93824361D01*
X182166561Y-93755531D01*
X182181658Y-93732039D01*
X182294698Y-93593407D01*
X182388909Y-93413049D01*
X182444886Y-93217418D01*
X182455500Y-93098037D01*
X182455499Y-93050454D01*
X182475182Y-92983418D01*
X182527985Y-92937662D01*
X182597144Y-92927717D01*
X182660700Y-92956740D01*
X182667180Y-92962774D01*
X183573518Y-93869112D01*
X183573521Y-93869114D01*
X183688253Y-93945775D01*
X183688259Y-93945777D01*
X183688260Y-93945778D01*
X183736931Y-93965938D01*
X183777160Y-93992818D01*
X183864811Y-94080469D01*
X183864813Y-94080470D01*
X183864815Y-94080472D01*
X184010394Y-94168478D01*
X184172804Y-94219086D01*
X184243384Y-94225500D01*
X184243387Y-94225500D01*
X185556613Y-94225500D01*
X185556616Y-94225500D01*
X185627196Y-94219086D01*
X185789606Y-94168478D01*
X185935185Y-94080472D01*
X186055472Y-93960185D01*
X186143478Y-93814606D01*
X186194086Y-93652196D01*
X186200500Y-93581616D01*
X186200500Y-93068384D01*
X186194086Y-92997804D01*
X186143478Y-92835394D01*
X186100408Y-92764149D01*
X186082573Y-92696595D01*
X186100409Y-92635850D01*
X186123124Y-92598275D01*
X186143478Y-92564606D01*
X186194086Y-92402196D01*
X186200500Y-92331616D01*
X186200500Y-91818384D01*
X186194086Y-91747804D01*
X186143478Y-91585394D01*
X186055472Y-91439815D01*
X186055470Y-91439813D01*
X186055469Y-91439811D01*
X185935188Y-91319530D01*
X185789606Y-91231522D01*
X185726186Y-91211760D01*
X185627196Y-91180914D01*
X185627194Y-91180913D01*
X185627192Y-91180913D01*
X185577778Y-91176423D01*
X185556616Y-91174500D01*
X184243384Y-91174500D01*
X184224145Y-91176248D01*
X184172807Y-91180913D01*
X184010394Y-91231522D01*
X183941071Y-91273429D01*
X183873516Y-91291264D01*
X183807042Y-91269746D01*
X183789241Y-91254992D01*
X181668138Y-89133888D01*
X181668137Y-89133887D01*
X181553399Y-89057222D01*
X181425924Y-89004421D01*
X181425914Y-89004418D01*
X181290588Y-88977500D01*
X181290586Y-88977500D01*
X181290585Y-88977500D01*
X180568993Y-88977500D01*
X169890994Y-88977500D01*
X169753006Y-88977500D01*
X169753004Y-88977500D01*
X169617677Y-89004418D01*
X169617667Y-89004421D01*
X169490192Y-89057222D01*
X169375454Y-89133887D01*
X167480888Y-91028453D01*
X167480884Y-91028458D01*
X167455722Y-91066116D01*
X167449453Y-91075500D01*
X167429014Y-91106089D01*
X167404223Y-91143191D01*
X167351421Y-91270667D01*
X167351418Y-91270677D01*
X167324500Y-91406004D01*
X167324500Y-96698500D01*
X167304815Y-96765539D01*
X167252011Y-96811294D01*
X167200500Y-96822500D01*
X167006441Y-96822500D01*
X166876351Y-96837157D01*
X166876341Y-96837159D01*
X166711395Y-96894877D01*
X166563425Y-96987852D01*
X166494420Y-97056857D01*
X166433096Y-97090341D01*
X166363405Y-97085356D01*
X166307471Y-97043485D01*
X166283226Y-96980155D01*
X166279886Y-96942584D01*
X166279886Y-96942583D01*
X166279886Y-96942582D01*
X166223909Y-96746951D01*
X166129698Y-96566593D01*
X166016983Y-96428359D01*
X165989875Y-96363965D01*
X166001884Y-96295135D01*
X166016981Y-96271642D01*
X166129698Y-96133407D01*
X166223909Y-95953049D01*
X166279886Y-95757418D01*
X166290500Y-95638037D01*
X166290499Y-94521964D01*
X166279886Y-94402582D01*
X166223909Y-94206951D01*
X166129698Y-94026593D01*
X166016983Y-93888359D01*
X165989875Y-93823965D01*
X166001884Y-93755135D01*
X166016981Y-93731642D01*
X166129698Y-93593407D01*
X166223909Y-93413049D01*
X166279886Y-93217418D01*
X166290500Y-93098037D01*
X166290499Y-91981964D01*
X166279886Y-91862582D01*
X166223909Y-91666951D01*
X166129698Y-91486593D01*
X166063986Y-91406004D01*
X166001109Y-91328890D01*
X165843409Y-91200304D01*
X165843410Y-91200304D01*
X165843407Y-91200302D01*
X165663049Y-91106091D01*
X165663048Y-91106090D01*
X165663045Y-91106089D01*
X165540331Y-91070977D01*
X165467418Y-91050114D01*
X165467415Y-91050113D01*
X165467413Y-91050113D01*
X165401102Y-91044217D01*
X165348037Y-91039500D01*
X165348032Y-91039500D01*
X163481971Y-91039500D01*
X163481965Y-91039500D01*
X163481964Y-91039501D01*
X163470316Y-91040536D01*
X163362584Y-91050113D01*
X163166954Y-91106089D01*
X163076772Y-91153196D01*
X162986593Y-91200302D01*
X162986591Y-91200303D01*
X162986590Y-91200304D01*
X162828890Y-91328890D01*
X162700304Y-91486590D01*
X162606089Y-91666954D01*
X162563580Y-91815519D01*
X162555362Y-91844243D01*
X162550114Y-91862583D01*
X162550113Y-91862586D01*
X162539500Y-91981966D01*
X162539500Y-92480980D01*
X162519815Y-92548019D01*
X162503181Y-92568661D01*
X161218388Y-93853453D01*
X161218382Y-93853461D01*
X161147073Y-93960182D01*
X161147074Y-93960183D01*
X161141729Y-93968182D01*
X161141723Y-93968192D01*
X161088920Y-94095671D01*
X161088918Y-94095677D01*
X161062000Y-94231004D01*
X161062000Y-94231007D01*
X161062000Y-113763506D01*
X161062000Y-113901494D01*
X161062000Y-113901496D01*
X161061999Y-113901496D01*
X158200500Y-113901496D01*
X158200500Y-88674984D01*
X185799500Y-88674984D01*
X185799500Y-90375015D01*
X185810000Y-90477795D01*
X185810001Y-90477796D01*
X185865186Y-90644335D01*
X185865187Y-90644337D01*
X185957286Y-90793651D01*
X185957289Y-90793655D01*
X186081344Y-90917710D01*
X186081348Y-90917713D01*
X186230662Y-91009812D01*
X186230664Y-91009813D01*
X186230666Y-91009814D01*
X186397203Y-91064999D01*
X186499992Y-91075500D01*
X186499997Y-91075500D01*
X189100003Y-91075500D01*
X189100008Y-91075500D01*
X189202797Y-91064999D01*
X189369334Y-91009814D01*
X189518655Y-90917711D01*
X189642711Y-90793655D01*
X189734814Y-90644334D01*
X189789999Y-90477797D01*
X189800500Y-90375008D01*
X189800500Y-88674992D01*
X189789999Y-88572203D01*
X189734814Y-88405666D01*
X189642711Y-88256345D01*
X189518655Y-88132289D01*
X189518651Y-88132286D01*
X189369337Y-88040187D01*
X189369335Y-88040186D01*
X189286065Y-88012593D01*
X189202797Y-87985001D01*
X189202795Y-87985000D01*
X189100015Y-87974500D01*
X189100008Y-87974500D01*
X186499992Y-87974500D01*
X186499984Y-87974500D01*
X186397204Y-87985000D01*
X186397203Y-87985001D01*
X186230664Y-88040186D01*
X186230662Y-88040187D01*
X186081348Y-88132286D01*
X186081344Y-88132289D01*
X185957289Y-88256344D01*
X185957286Y-88256348D01*
X185865187Y-88405662D01*
X185865186Y-88405664D01*
X185810001Y-88572203D01*
X185810000Y-88572204D01*
X185799500Y-88674984D01*
X158200500Y-88674984D01*
X158200500Y-87824500D01*
X158220185Y-87757461D01*
X158272989Y-87711706D01*
X158324500Y-87700500D01*
X190275500Y-87700500D01*
X190342539Y-87720185D01*
G37*
%TD.AperFunction*%
%TD*%
M02*
