%TF.GenerationSoftware,KiCad,Pcbnew,10.0.3*%
%TF.CreationDate,2026-09-30T23:19:01+09:00*%
%TF.ProjectId,EMG,454d472e-6b69-4636-9164-5f7063625858,rev?*%
%TF.SameCoordinates,Original*%
%TF.FileFunction,Legend,Top*%
%TF.FilePolarity,Positive*%
%FSLAX46Y46*%
G04 Gerber Fmt 4.6, Leading zero omitted, Abs format (unit mm)*
G04 Created by KiCad (PCBNEW 10.0.3) date 2026-09-30 23:19:01*
%MOMM*%
%LPD*%
G01*
G04 APERTURE LIST*
%ADD10C,0.150000*%
%ADD11C,0.106680*%
%ADD12C,0.120000*%
%ADD13C,0.100000*%
%ADD14C,0.127000*%
%ADD15C,0.504000*%
G04 APERTURE END LIST*
D10*
X186866667Y-111852200D02*
X187009524Y-111899819D01*
X187009524Y-111899819D02*
X187247619Y-111899819D01*
X187247619Y-111899819D02*
X187342857Y-111852200D01*
X187342857Y-111852200D02*
X187390476Y-111804580D01*
X187390476Y-111804580D02*
X187438095Y-111709342D01*
X187438095Y-111709342D02*
X187438095Y-111614104D01*
X187438095Y-111614104D02*
X187390476Y-111518866D01*
X187390476Y-111518866D02*
X187342857Y-111471247D01*
X187342857Y-111471247D02*
X187247619Y-111423628D01*
X187247619Y-111423628D02*
X187057143Y-111376009D01*
X187057143Y-111376009D02*
X186961905Y-111328390D01*
X186961905Y-111328390D02*
X186914286Y-111280771D01*
X186914286Y-111280771D02*
X186866667Y-111185533D01*
X186866667Y-111185533D02*
X186866667Y-111090295D01*
X186866667Y-111090295D02*
X186914286Y-110995057D01*
X186914286Y-110995057D02*
X186961905Y-110947438D01*
X186961905Y-110947438D02*
X187057143Y-110899819D01*
X187057143Y-110899819D02*
X187295238Y-110899819D01*
X187295238Y-110899819D02*
X187438095Y-110947438D01*
X187771429Y-110899819D02*
X188009524Y-111899819D01*
X188009524Y-111899819D02*
X188200000Y-111185533D01*
X188200000Y-111185533D02*
X188390476Y-111899819D01*
X188390476Y-111899819D02*
X188628572Y-110899819D01*
X189533333Y-111899819D02*
X188961905Y-111899819D01*
X189247619Y-111899819D02*
X189247619Y-110899819D01*
X189247619Y-110899819D02*
X189152381Y-111042676D01*
X189152381Y-111042676D02*
X189057143Y-111137914D01*
X189057143Y-111137914D02*
X188961905Y-111185533D01*
X187522023Y-103254819D02*
X187188690Y-102778628D01*
X186950595Y-103254819D02*
X186950595Y-102254819D01*
X186950595Y-102254819D02*
X187331547Y-102254819D01*
X187331547Y-102254819D02*
X187426785Y-102302438D01*
X187426785Y-102302438D02*
X187474404Y-102350057D01*
X187474404Y-102350057D02*
X187522023Y-102445295D01*
X187522023Y-102445295D02*
X187522023Y-102588152D01*
X187522023Y-102588152D02*
X187474404Y-102683390D01*
X187474404Y-102683390D02*
X187426785Y-102731009D01*
X187426785Y-102731009D02*
X187331547Y-102778628D01*
X187331547Y-102778628D02*
X186950595Y-102778628D01*
X179256666Y-110814819D02*
X179256666Y-111529104D01*
X179256666Y-111529104D02*
X179209047Y-111671961D01*
X179209047Y-111671961D02*
X179113809Y-111767200D01*
X179113809Y-111767200D02*
X178970952Y-111814819D01*
X178970952Y-111814819D02*
X178875714Y-111814819D01*
X179637619Y-110814819D02*
X180256666Y-110814819D01*
X180256666Y-110814819D02*
X179923333Y-111195771D01*
X179923333Y-111195771D02*
X180066190Y-111195771D01*
X180066190Y-111195771D02*
X180161428Y-111243390D01*
X180161428Y-111243390D02*
X180209047Y-111291009D01*
X180209047Y-111291009D02*
X180256666Y-111386247D01*
X180256666Y-111386247D02*
X180256666Y-111624342D01*
X180256666Y-111624342D02*
X180209047Y-111719580D01*
X180209047Y-111719580D02*
X180161428Y-111767200D01*
X180161428Y-111767200D02*
X180066190Y-111814819D01*
X180066190Y-111814819D02*
X179780476Y-111814819D01*
X179780476Y-111814819D02*
X179685238Y-111767200D01*
X179685238Y-111767200D02*
X179637619Y-111719580D01*
X179256666Y-118314819D02*
X179256666Y-119029104D01*
X179256666Y-119029104D02*
X179209047Y-119171961D01*
X179209047Y-119171961D02*
X179113809Y-119267200D01*
X179113809Y-119267200D02*
X178970952Y-119314819D01*
X178970952Y-119314819D02*
X178875714Y-119314819D01*
X180161428Y-118648152D02*
X180161428Y-119314819D01*
X179923333Y-118267200D02*
X179685238Y-118981485D01*
X179685238Y-118981485D02*
X180304285Y-118981485D01*
X187133333Y-108159580D02*
X187085714Y-108207200D01*
X187085714Y-108207200D02*
X186942857Y-108254819D01*
X186942857Y-108254819D02*
X186847619Y-108254819D01*
X186847619Y-108254819D02*
X186704762Y-108207200D01*
X186704762Y-108207200D02*
X186609524Y-108111961D01*
X186609524Y-108111961D02*
X186561905Y-108016723D01*
X186561905Y-108016723D02*
X186514286Y-107826247D01*
X186514286Y-107826247D02*
X186514286Y-107683390D01*
X186514286Y-107683390D02*
X186561905Y-107492914D01*
X186561905Y-107492914D02*
X186609524Y-107397676D01*
X186609524Y-107397676D02*
X186704762Y-107302438D01*
X186704762Y-107302438D02*
X186847619Y-107254819D01*
X186847619Y-107254819D02*
X186942857Y-107254819D01*
X186942857Y-107254819D02*
X187085714Y-107302438D01*
X187085714Y-107302438D02*
X187133333Y-107350057D01*
X187514286Y-107350057D02*
X187561905Y-107302438D01*
X187561905Y-107302438D02*
X187657143Y-107254819D01*
X187657143Y-107254819D02*
X187895238Y-107254819D01*
X187895238Y-107254819D02*
X187990476Y-107302438D01*
X187990476Y-107302438D02*
X188038095Y-107350057D01*
X188038095Y-107350057D02*
X188085714Y-107445295D01*
X188085714Y-107445295D02*
X188085714Y-107540533D01*
X188085714Y-107540533D02*
X188038095Y-107683390D01*
X188038095Y-107683390D02*
X187466667Y-108254819D01*
X187466667Y-108254819D02*
X188085714Y-108254819D01*
X182354819Y-93033333D02*
X183069104Y-93033333D01*
X183069104Y-93033333D02*
X183211961Y-93080952D01*
X183211961Y-93080952D02*
X183307200Y-93176190D01*
X183307200Y-93176190D02*
X183354819Y-93319047D01*
X183354819Y-93319047D02*
X183354819Y-93414285D01*
X182354819Y-92080952D02*
X182354819Y-92557142D01*
X182354819Y-92557142D02*
X182831009Y-92604761D01*
X182831009Y-92604761D02*
X182783390Y-92557142D01*
X182783390Y-92557142D02*
X182735771Y-92461904D01*
X182735771Y-92461904D02*
X182735771Y-92223809D01*
X182735771Y-92223809D02*
X182783390Y-92128571D01*
X182783390Y-92128571D02*
X182831009Y-92080952D01*
X182831009Y-92080952D02*
X182926247Y-92033333D01*
X182926247Y-92033333D02*
X183164342Y-92033333D01*
X183164342Y-92033333D02*
X183259580Y-92080952D01*
X183259580Y-92080952D02*
X183307200Y-92128571D01*
X183307200Y-92128571D02*
X183354819Y-92223809D01*
X183354819Y-92223809D02*
X183354819Y-92461904D01*
X183354819Y-92461904D02*
X183307200Y-92557142D01*
X183307200Y-92557142D02*
X183259580Y-92604761D01*
X187145833Y-110654819D02*
X186812500Y-110178628D01*
X186574405Y-110654819D02*
X186574405Y-109654819D01*
X186574405Y-109654819D02*
X186955357Y-109654819D01*
X186955357Y-109654819D02*
X187050595Y-109702438D01*
X187050595Y-109702438D02*
X187098214Y-109750057D01*
X187098214Y-109750057D02*
X187145833Y-109845295D01*
X187145833Y-109845295D02*
X187145833Y-109988152D01*
X187145833Y-109988152D02*
X187098214Y-110083390D01*
X187098214Y-110083390D02*
X187050595Y-110131009D01*
X187050595Y-110131009D02*
X186955357Y-110178628D01*
X186955357Y-110178628D02*
X186574405Y-110178628D01*
X187526786Y-109750057D02*
X187574405Y-109702438D01*
X187574405Y-109702438D02*
X187669643Y-109654819D01*
X187669643Y-109654819D02*
X187907738Y-109654819D01*
X187907738Y-109654819D02*
X188002976Y-109702438D01*
X188002976Y-109702438D02*
X188050595Y-109750057D01*
X188050595Y-109750057D02*
X188098214Y-109845295D01*
X188098214Y-109845295D02*
X188098214Y-109940533D01*
X188098214Y-109940533D02*
X188050595Y-110083390D01*
X188050595Y-110083390D02*
X187479167Y-110654819D01*
X187479167Y-110654819D02*
X188098214Y-110654819D01*
X187133333Y-105659580D02*
X187085714Y-105707200D01*
X187085714Y-105707200D02*
X186942857Y-105754819D01*
X186942857Y-105754819D02*
X186847619Y-105754819D01*
X186847619Y-105754819D02*
X186704762Y-105707200D01*
X186704762Y-105707200D02*
X186609524Y-105611961D01*
X186609524Y-105611961D02*
X186561905Y-105516723D01*
X186561905Y-105516723D02*
X186514286Y-105326247D01*
X186514286Y-105326247D02*
X186514286Y-105183390D01*
X186514286Y-105183390D02*
X186561905Y-104992914D01*
X186561905Y-104992914D02*
X186609524Y-104897676D01*
X186609524Y-104897676D02*
X186704762Y-104802438D01*
X186704762Y-104802438D02*
X186847619Y-104754819D01*
X186847619Y-104754819D02*
X186942857Y-104754819D01*
X186942857Y-104754819D02*
X187085714Y-104802438D01*
X187085714Y-104802438D02*
X187133333Y-104850057D01*
X188085714Y-105754819D02*
X187514286Y-105754819D01*
X187800000Y-105754819D02*
X187800000Y-104754819D01*
X187800000Y-104754819D02*
X187704762Y-104897676D01*
X187704762Y-104897676D02*
X187609524Y-104992914D01*
X187609524Y-104992914D02*
X187514286Y-105040533D01*
X165756666Y-118314819D02*
X165756666Y-119029104D01*
X165756666Y-119029104D02*
X165709047Y-119171961D01*
X165709047Y-119171961D02*
X165613809Y-119267200D01*
X165613809Y-119267200D02*
X165470952Y-119314819D01*
X165470952Y-119314819D02*
X165375714Y-119314819D01*
X166185238Y-118410057D02*
X166232857Y-118362438D01*
X166232857Y-118362438D02*
X166328095Y-118314819D01*
X166328095Y-118314819D02*
X166566190Y-118314819D01*
X166566190Y-118314819D02*
X166661428Y-118362438D01*
X166661428Y-118362438D02*
X166709047Y-118410057D01*
X166709047Y-118410057D02*
X166756666Y-118505295D01*
X166756666Y-118505295D02*
X166756666Y-118600533D01*
X166756666Y-118600533D02*
X166709047Y-118743390D01*
X166709047Y-118743390D02*
X166137619Y-119314819D01*
X166137619Y-119314819D02*
X166756666Y-119314819D01*
X165756666Y-110814819D02*
X165756666Y-111529104D01*
X165756666Y-111529104D02*
X165709047Y-111671961D01*
X165709047Y-111671961D02*
X165613809Y-111767200D01*
X165613809Y-111767200D02*
X165470952Y-111814819D01*
X165470952Y-111814819D02*
X165375714Y-111814819D01*
X166756666Y-111814819D02*
X166185238Y-111814819D01*
X166470952Y-111814819D02*
X166470952Y-110814819D01*
X166470952Y-110814819D02*
X166375714Y-110957676D01*
X166375714Y-110957676D02*
X166280476Y-111052914D01*
X166280476Y-111052914D02*
X166185238Y-111100533D01*
X186866667Y-119352200D02*
X187009524Y-119399819D01*
X187009524Y-119399819D02*
X187247619Y-119399819D01*
X187247619Y-119399819D02*
X187342857Y-119352200D01*
X187342857Y-119352200D02*
X187390476Y-119304580D01*
X187390476Y-119304580D02*
X187438095Y-119209342D01*
X187438095Y-119209342D02*
X187438095Y-119114104D01*
X187438095Y-119114104D02*
X187390476Y-119018866D01*
X187390476Y-119018866D02*
X187342857Y-118971247D01*
X187342857Y-118971247D02*
X187247619Y-118923628D01*
X187247619Y-118923628D02*
X187057143Y-118876009D01*
X187057143Y-118876009D02*
X186961905Y-118828390D01*
X186961905Y-118828390D02*
X186914286Y-118780771D01*
X186914286Y-118780771D02*
X186866667Y-118685533D01*
X186866667Y-118685533D02*
X186866667Y-118590295D01*
X186866667Y-118590295D02*
X186914286Y-118495057D01*
X186914286Y-118495057D02*
X186961905Y-118447438D01*
X186961905Y-118447438D02*
X187057143Y-118399819D01*
X187057143Y-118399819D02*
X187295238Y-118399819D01*
X187295238Y-118399819D02*
X187438095Y-118447438D01*
X187771429Y-118399819D02*
X188009524Y-119399819D01*
X188009524Y-119399819D02*
X188200000Y-118685533D01*
X188200000Y-118685533D02*
X188390476Y-119399819D01*
X188390476Y-119399819D02*
X188628572Y-118399819D01*
X188961905Y-118495057D02*
X189009524Y-118447438D01*
X189009524Y-118447438D02*
X189104762Y-118399819D01*
X189104762Y-118399819D02*
X189342857Y-118399819D01*
X189342857Y-118399819D02*
X189438095Y-118447438D01*
X189438095Y-118447438D02*
X189485714Y-118495057D01*
X189485714Y-118495057D02*
X189533333Y-118590295D01*
X189533333Y-118590295D02*
X189533333Y-118685533D01*
X189533333Y-118685533D02*
X189485714Y-118828390D01*
X189485714Y-118828390D02*
X188914286Y-119399819D01*
X188914286Y-119399819D02*
X189533333Y-119399819D01*
D11*
X170948450Y-88440391D02*
X170948450Y-89073698D01*
X170948450Y-89073698D02*
X170985704Y-89148204D01*
X170985704Y-89148204D02*
X171022957Y-89185458D01*
X171022957Y-89185458D02*
X171097464Y-89222711D01*
X171097464Y-89222711D02*
X171246477Y-89222711D01*
X171246477Y-89222711D02*
X171320984Y-89185458D01*
X171320984Y-89185458D02*
X171358237Y-89148204D01*
X171358237Y-89148204D02*
X171395490Y-89073698D01*
X171395490Y-89073698D02*
X171395490Y-88440391D01*
X172177810Y-89222711D02*
X171730770Y-89222711D01*
X171954290Y-89222711D02*
X171954290Y-88440391D01*
X171954290Y-88440391D02*
X171879783Y-88552151D01*
X171879783Y-88552151D02*
X171805277Y-88626658D01*
X171805277Y-88626658D02*
X171730770Y-88663911D01*
%TO.C,SW1*%
D12*
X186820000Y-112445000D02*
X188200000Y-112445000D01*
X186820000Y-113825000D02*
X186820000Y-112445000D01*
X186820000Y-115095000D02*
X186820000Y-117745000D01*
X186820000Y-115095000D02*
X189580000Y-115095000D01*
X186820000Y-117745000D02*
X189580000Y-117745000D01*
X189580000Y-115095000D02*
X189580000Y-117745000D01*
%TO.C,R*%
X184285436Y-102065000D02*
X184739564Y-102065000D01*
X184285436Y-103535000D02*
X184739564Y-103535000D01*
%TO.C,J3*%
X174230000Y-115460000D02*
X174230000Y-117870000D01*
X174230000Y-117870000D02*
X176640000Y-117870000D01*
X174530000Y-112450000D02*
X174530000Y-117570000D01*
X174530000Y-117570000D02*
X183650000Y-117570000D01*
X183650000Y-117570000D02*
X184650000Y-116570000D01*
X184650000Y-112450000D02*
X174530000Y-112450000D01*
X184650000Y-116570000D02*
X184650000Y-112450000D01*
%TO.C,J4*%
X174230000Y-122960000D02*
X174230000Y-125370000D01*
X174230000Y-125370000D02*
X176640000Y-125370000D01*
X174530000Y-119950000D02*
X174530000Y-125070000D01*
X174530000Y-125070000D02*
X183650000Y-125070000D01*
X183650000Y-125070000D02*
X184650000Y-124070000D01*
X184650000Y-119950000D02*
X174530000Y-119950000D01*
X184650000Y-124070000D02*
X184650000Y-119950000D01*
%TO.C,C2*%
X184288748Y-107015000D02*
X184811252Y-107015000D01*
X184288748Y-108485000D02*
X184811252Y-108485000D01*
%TO.C,J5*%
X185590000Y-90465000D02*
X185590000Y-91415000D01*
X185590000Y-93985000D02*
X184100000Y-93985000D01*
X185590000Y-94935000D02*
X185590000Y-93985000D01*
X186040000Y-90465000D02*
X185590000Y-90465000D01*
X186040000Y-94935000D02*
X185590000Y-94935000D01*
X189560000Y-94935000D02*
X190010000Y-94935000D01*
X190010000Y-90465000D02*
X189560000Y-90465000D01*
X190010000Y-94935000D02*
X190010000Y-90465000D01*
%TO.C,R2*%
X184285436Y-109465000D02*
X184739564Y-109465000D01*
X184285436Y-110935000D02*
X184739564Y-110935000D01*
%TO.C,C1*%
X184288748Y-104515000D02*
X184811252Y-104515000D01*
X184288748Y-105985000D02*
X184811252Y-105985000D01*
%TO.C,J2*%
X160730000Y-122960000D02*
X160730000Y-125370000D01*
X160730000Y-125370000D02*
X163140000Y-125370000D01*
X161030000Y-119950000D02*
X161030000Y-125070000D01*
X161030000Y-125070000D02*
X170150000Y-125070000D01*
X170150000Y-125070000D02*
X171150000Y-124070000D01*
X171150000Y-119950000D02*
X161030000Y-119950000D01*
X171150000Y-124070000D02*
X171150000Y-119950000D01*
%TO.C,J1*%
X160730000Y-115460000D02*
X160730000Y-117870000D01*
X160730000Y-117870000D02*
X163140000Y-117870000D01*
X161030000Y-112450000D02*
X161030000Y-117570000D01*
X161030000Y-117570000D02*
X170150000Y-117570000D01*
X170150000Y-117570000D02*
X171150000Y-116570000D01*
X171150000Y-112450000D02*
X161030000Y-112450000D01*
X171150000Y-116570000D02*
X171150000Y-112450000D01*
%TO.C,SW2*%
X186820000Y-119945000D02*
X188200000Y-119945000D01*
X186820000Y-121325000D02*
X186820000Y-119945000D01*
X186820000Y-122595000D02*
X186820000Y-125245000D01*
X186820000Y-122595000D02*
X189580000Y-122595000D01*
X186820000Y-125245000D02*
X189580000Y-125245000D01*
X189580000Y-122595000D02*
X189580000Y-125245000D01*
%TO.C,U1*%
D13*
X163580000Y-108673000D02*
X163580000Y-91528000D01*
X165485000Y-110578000D02*
X179455000Y-110578000D01*
D14*
X167975000Y-89623000D02*
X167978728Y-88612728D01*
X168478728Y-88113000D02*
X176474000Y-88113000D01*
X176974000Y-88613000D02*
X176974000Y-89623000D01*
D13*
X179455000Y-89623000D02*
X165485000Y-89623000D01*
X181360000Y-108673000D02*
X181360000Y-91528000D01*
X163580000Y-91524000D02*
G75*
G02*
X165485000Y-89619000I1905001J-1D01*
G01*
X165485000Y-110578000D02*
G75*
G02*
X163580000Y-108673000I0J1905000D01*
G01*
D14*
X167978728Y-88612728D02*
G75*
G02*
X168478728Y-88112998I500022J-292D01*
G01*
X176474000Y-88113000D02*
G75*
G02*
X176974000Y-88613000I0J-500000D01*
G01*
D13*
X179455000Y-89623000D02*
G75*
G02*
X181360000Y-91528000I0J-1905000D01*
G01*
X181360000Y-108673000D02*
G75*
G02*
X179455000Y-110578000I-1905000J0D01*
G01*
D15*
X163622000Y-90039000D02*
G75*
G02*
X163118000Y-90039000I-252000J0D01*
G01*
X163118000Y-90039000D02*
G75*
G02*
X163622000Y-90039000I252000J0D01*
G01*
X164839000Y-90762000D02*
G75*
G02*
X164335000Y-90762000I-252000J0D01*
G01*
X164335000Y-90762000D02*
G75*
G02*
X164839000Y-90762000I252000J0D01*
G01*
%TD*%
M02*
