%TF.GenerationSoftware,KiCad,Pcbnew,10.0.3*%
%TF.CreationDate,2026-09-30T23:19:01+09:00*%
%TF.ProjectId,EMG,454d472e-6b69-4636-9164-5f7063625858,rev?*%
%TF.SameCoordinates,Original*%
%TF.FileFunction,Legend,Bot*%
%TF.FilePolarity,Positive*%
%FSLAX46Y46*%
G04 Gerber Fmt 4.6, Leading zero omitted, Abs format (unit mm)*
G04 Created by KiCad (PCBNEW 10.0.3) date 2026-09-30 23:19:01*
%MOMM*%
%LPD*%
G01*
G04 APERTURE LIST*
%ADD10C,0.100000*%
G04 APERTURE END LIST*
D10*
X164895443Y-88495419D02*
X164895443Y-89209704D01*
X164895443Y-89209704D02*
X164943062Y-89352561D01*
X164943062Y-89352561D02*
X165038300Y-89447800D01*
X165038300Y-89447800D02*
X165181157Y-89495419D01*
X165181157Y-89495419D02*
X165276395Y-89495419D01*
X164657348Y-89590657D02*
X163895443Y-89590657D01*
X163657347Y-89495419D02*
X163657347Y-88495419D01*
X163657347Y-88495419D02*
X163085919Y-89495419D01*
X163085919Y-89495419D02*
X163085919Y-88495419D01*
X162704966Y-88495419D02*
X162466871Y-89495419D01*
X162466871Y-89495419D02*
X162276395Y-88781133D01*
X162276395Y-88781133D02*
X162085919Y-89495419D01*
X162085919Y-89495419D02*
X161847824Y-88495419D01*
X161276395Y-88495419D02*
X161085919Y-88495419D01*
X161085919Y-88495419D02*
X160990681Y-88543038D01*
X160990681Y-88543038D02*
X160895443Y-88638276D01*
X160895443Y-88638276D02*
X160847824Y-88828752D01*
X160847824Y-88828752D02*
X160847824Y-89162085D01*
X160847824Y-89162085D02*
X160895443Y-89352561D01*
X160895443Y-89352561D02*
X160990681Y-89447800D01*
X160990681Y-89447800D02*
X161085919Y-89495419D01*
X161085919Y-89495419D02*
X161276395Y-89495419D01*
X161276395Y-89495419D02*
X161371633Y-89447800D01*
X161371633Y-89447800D02*
X161466871Y-89352561D01*
X161466871Y-89352561D02*
X161514490Y-89162085D01*
X161514490Y-89162085D02*
X161514490Y-88828752D01*
X161514490Y-88828752D02*
X161466871Y-88638276D01*
X161466871Y-88638276D02*
X161371633Y-88543038D01*
X161371633Y-88543038D02*
X161276395Y-88495419D01*
X160419252Y-89495419D02*
X160419252Y-88495419D01*
X160419252Y-88495419D02*
X159847824Y-89495419D01*
X159847824Y-89495419D02*
X159847824Y-88495419D01*
X158847824Y-88543038D02*
X158943062Y-88495419D01*
X158943062Y-88495419D02*
X159085919Y-88495419D01*
X159085919Y-88495419D02*
X159228776Y-88543038D01*
X159228776Y-88543038D02*
X159324014Y-88638276D01*
X159324014Y-88638276D02*
X159371633Y-88733514D01*
X159371633Y-88733514D02*
X159419252Y-88923990D01*
X159419252Y-88923990D02*
X159419252Y-89066847D01*
X159419252Y-89066847D02*
X159371633Y-89257323D01*
X159371633Y-89257323D02*
X159324014Y-89352561D01*
X159324014Y-89352561D02*
X159228776Y-89447800D01*
X159228776Y-89447800D02*
X159085919Y-89495419D01*
X159085919Y-89495419D02*
X158990681Y-89495419D01*
X158990681Y-89495419D02*
X158847824Y-89447800D01*
X158847824Y-89447800D02*
X158800205Y-89400180D01*
X158800205Y-89400180D02*
X158800205Y-89066847D01*
X158800205Y-89066847D02*
X158990681Y-89066847D01*
M02*
