%TF.GenerationSoftware,KiCad,Pcbnew,10.0.3*%
%TF.CreationDate,2026-09-30T23:19:01+09:00*%
%TF.ProjectId,EMG,454d472e-6b69-4636-9164-5f7063625858,rev?*%
%TF.SameCoordinates,Original*%
%TF.FileFunction,Soldermask,Top*%
%TF.FilePolarity,Negative*%
%FSLAX46Y46*%
G04 Gerber Fmt 4.6, Leading zero omitted, Abs format (unit mm)*
G04 Created by KiCad (PCBNEW 10.0.3) date 2026-09-30 23:19:01*
%MOMM*%
%LPD*%
G01*
G04 APERTURE LIST*
G04 Aperture macros list*
%AMRoundRect*
0 Rectangle with rounded corners*
0 $1 Rounding radius*
0 $2 $3 $4 $5 $6 $7 $8 $9 X,Y pos of 4 corners*
0 Add a 4 corners polygon primitive as box body*
4,1,4,$2,$3,$4,$5,$6,$7,$8,$9,$2,$3,0*
0 Add four circle primitives for the rounded corners*
1,1,$1+$1,$2,$3*
1,1,$1+$1,$4,$5*
1,1,$1+$1,$6,$7*
1,1,$1+$1,$8,$9*
0 Add four rect primitives between the rounded corners*
20,1,$1+$1,$2,$3,$4,$5,0*
20,1,$1+$1,$4,$5,$6,$7,0*
20,1,$1+$1,$6,$7,$8,$9,0*
20,1,$1+$1,$8,$9,$2,$3,0*%
G04 Aperture macros list end*
%ADD10R,1.700000X1.700000*%
%ADD11C,1.700000*%
%ADD12RoundRect,0.250000X-0.262500X-0.450000X0.262500X-0.450000X0.262500X0.450000X-0.262500X0.450000X0*%
%ADD13RoundRect,0.250000X-0.600000X-0.675000X0.600000X-0.675000X0.600000X0.675000X-0.600000X0.675000X0*%
%ADD14O,1.700000X1.850000*%
%ADD15RoundRect,0.250000X-0.250000X-0.475000X0.250000X-0.475000X0.250000X0.475000X-0.250000X0.475000X0*%
%ADD16RoundRect,0.200000X0.600000X-0.200000X0.600000X0.200000X-0.600000X0.200000X-0.600000X-0.200000X0*%
%ADD17RoundRect,0.250001X1.249999X-0.799999X1.249999X0.799999X-1.249999X0.799999X-1.249999X-0.799999X0*%
%ADD18RoundRect,0.525400X-0.900400X-0.525400X0.900400X-0.525400X0.900400X0.525400X-0.900400X0.525400X0*%
%ADD19RoundRect,0.275000X0.975000X0.275000X-0.975000X0.275000X-0.975000X-0.275000X0.975000X-0.275000X0*%
%ADD20RoundRect,0.625000X-0.750000X-0.625000X0.750000X-0.625000X0.750000X0.625000X-0.750000X0.625000X0*%
G04 APERTURE END LIST*
D10*
%TO.C,SW1*%
X188200000Y-113825000D03*
D11*
X188200000Y-116365000D03*
%TD*%
D12*
%TO.C,R*%
X183600000Y-102800000D03*
X185425000Y-102800000D03*
%TD*%
D13*
%TO.C,J3*%
X177090000Y-115660000D03*
D14*
X179590000Y-115660000D03*
X182090000Y-115660000D03*
%TD*%
D13*
%TO.C,J4*%
X177090000Y-123160000D03*
D14*
X179590000Y-123160000D03*
X182090000Y-123160000D03*
%TD*%
D15*
%TO.C,C2*%
X183600000Y-107750000D03*
X185500000Y-107750000D03*
%TD*%
D16*
%TO.C,J5*%
X184900000Y-93325000D03*
X184900000Y-92075000D03*
D17*
X187800000Y-95875000D03*
X187800000Y-89525000D03*
%TD*%
D12*
%TO.C,R2*%
X183600000Y-110200000D03*
X185425000Y-110200000D03*
%TD*%
D15*
%TO.C,C1*%
X183600000Y-105250000D03*
X185500000Y-105250000D03*
%TD*%
D13*
%TO.C,J2*%
X163590000Y-123160000D03*
D14*
X166090000Y-123160000D03*
X168590000Y-123160000D03*
%TD*%
D13*
%TO.C,J1*%
X163590000Y-115660000D03*
D14*
X166090000Y-115660000D03*
X168590000Y-115660000D03*
%TD*%
D10*
%TO.C,SW2*%
X188200000Y-121325000D03*
D11*
X188200000Y-123865000D03*
%TD*%
D18*
%TO.C,U1*%
X164415000Y-92540000D03*
X164415000Y-95080000D03*
X164415000Y-97620000D03*
X164415000Y-100160000D03*
X164415000Y-102700000D03*
X164415000Y-105240000D03*
X164415000Y-107780000D03*
X180580000Y-107780000D03*
X180580000Y-105240000D03*
X180580000Y-102700000D03*
X180580000Y-100160000D03*
X180580000Y-97620000D03*
X180580000Y-95080000D03*
X180580000Y-92540000D03*
D11*
X171200000Y-91528000D03*
X173740000Y-91528000D03*
X171200000Y-94068000D03*
X173740000Y-94068000D03*
X171200000Y-96608000D03*
X173740000Y-96608000D03*
X171200000Y-99148000D03*
X173740000Y-99148000D03*
D19*
X168025000Y-99778000D03*
X168025000Y-97873000D03*
D20*
X173590000Y-102160000D03*
%TD*%
M02*
